<?xml version="1.0" encoding="UTF-8" ?>
<!DOCTYPE svg PUBLIC "-//W3C//DTD SVG 1.1//EN" "http://www.w3.org/Graphics/SVG/1.1/DTD/svg11.dtd">
<svg width="1181pt" height="1181pt" viewBox="0 0 1181 1181" version="1.1" xmlns="http://www.w3.org/2000/svg">
<g id="#1a316b2d">
<path fill="#1a316b" opacity="0.18" d=" M 440.38 125.52 C 442.28 127.03 436.78 128.28 436.62 126.37 C 437.54 125.38 439.12 125.31 440.38 125.52 Z" />
</g>
<g id="#32328dff">
<path fill="#32328d" opacity="1.00" d=" M 497.22 266.60 C 498.80 265.83 500.37 265.03 501.92 264.19 C 502.17 264.64 502.66 265.53 502.90 265.98 C 504.89 266.64 506.79 267.59 508.40 268.96 C 509.44 269.49 510.50 270.02 511.57 270.53 C 512.07 270.81 513.08 271.36 513.59 271.63 C 515.19 272.81 516.94 273.78 518.76 274.61 C 519.13 274.97 519.86 275.69 520.23 276.05 C 521.34 276.52 522.45 277.01 523.57 277.50 C 524.09 277.78 525.12 278.33 525.63 278.60 C 526.56 279.28 527.51 279.95 528.47 280.60 C 529.84 281.25 531.22 281.91 532.59 282.59 C 534.13 283.76 535.81 284.73 537.54 285.62 C 538.06 285.87 539.08 286.37 539.59 286.61 C 541.17 287.75 542.86 288.74 544.57 289.68 C 546.15 290.77 547.84 291.72 549.59 292.53 C 551.28 293.49 552.91 294.54 554.55 295.60 C 555.95 296.26 557.36 296.91 558.79 297.55 C 559.14 297.92 559.84 298.67 560.19 299.04 C 561.32 299.52 562.45 300.02 563.58 300.53 C 564.12 300.77 565.21 301.26 565.76 301.51 C 566.12 301.89 566.85 302.66 567.21 303.05 C 568.34 303.53 569.47 304.04 570.61 304.55 C 571.84 305.44 573.11 306.29 574.40 307.14 C 575.17 307.44 575.95 307.75 576.73 308.06 C 578.59 309.37 580.51 310.57 582.54 311.61 C 583.06 311.86 584.09 312.37 584.61 312.62 C 586.63 314.06 588.81 315.25 590.98 316.47 C 592.50 315.59 594.05 314.74 595.60 313.89 C 596.84 313.06 598.12 312.27 599.41 311.51 C 602.89 309.82 606.17 307.74 609.41 305.62 C 612.52 304.13 615.49 302.36 618.36 300.45 C 619.50 299.99 620.64 299.52 621.80 299.07 C 622.16 298.68 622.87 297.90 623.22 297.51 C 623.78 297.26 624.89 296.76 625.44 296.52 C 626.55 296.02 627.66 295.52 628.79 295.04 C 629.15 294.68 629.86 293.97 630.22 293.62 C 632.04 292.79 633.80 291.83 635.41 290.63 C 637.82 289.43 640.24 288.22 642.41 286.62 C 642.92 286.35 643.93 285.80 644.43 285.53 C 645.49 285.01 646.55 284.48 647.62 283.96 C 648.84 283.07 650.10 282.23 651.36 281.40 C 652.51 280.96 653.65 280.51 654.82 280.09 C 655.16 279.68 655.86 278.88 656.21 278.47 C 657.40 278.00 658.60 277.53 659.81 277.09 C 660.15 276.70 660.85 275.92 661.20 275.53 C 661.76 275.28 662.86 274.78 663.42 274.53 C 664.53 274.03 665.65 273.52 666.79 273.04 C 667.15 272.66 667.87 271.90 668.22 271.52 C 670.08 270.69 671.93 269.84 673.81 269.05 C 674.17 268.64 674.88 267.81 675.24 267.40 C 676.53 266.96 677.82 266.51 679.13 266.10 C 679.37 265.61 679.84 264.63 680.07 264.14 C 681.56 264.99 683.07 265.82 684.59 266.64 C 688.47 269.16 692.44 271.56 696.59 273.64 C 698.14 274.77 699.83 275.72 701.59 276.55 C 703.90 277.92 706.17 279.39 708.63 280.52 C 709.91 281.30 711.18 282.09 712.42 282.95 C 713.46 283.49 714.51 284.04 715.57 284.59 C 717.14 285.72 718.80 286.72 720.52 287.65 C 721.09 287.86 722.22 288.28 722.79 288.49 C 723.14 288.88 723.84 289.68 724.19 290.07 C 725.33 290.51 726.46 290.97 727.62 291.44 C 729.87 292.90 732.13 294.36 734.52 295.59 C 735.05 295.84 736.10 296.34 736.62 296.59 C 737.57 297.25 738.53 297.91 739.52 298.54 C 742.54 300.32 745.50 302.21 748.75 303.56 C 749.13 303.94 749.87 304.69 750.24 305.06 C 751.35 305.53 752.46 306.02 753.59 306.50 C 754.09 306.78 755.11 307.35 755.62 307.63 C 756.56 308.26 757.52 308.89 758.51 309.49 C 759.83 310.26 761.14 311.07 762.40 311.97 C 763.45 312.47 764.51 312.98 765.59 313.48 C 767.88 314.88 770.14 316.35 772.52 317.62 C 773.08 317.84 774.22 318.27 774.78 318.49 C 775.14 318.89 775.84 319.69 776.19 320.09 C 777.34 320.52 778.50 320.96 779.67 321.41 C 780.92 322.25 782.17 323.10 783.39 324.01 C 784.51 324.51 785.64 325.01 786.78 325.51 C 787.13 325.90 787.84 326.68 788.19 327.07 C 789.32 327.51 790.46 327.98 791.61 328.44 C 794.48 330.36 797.47 332.11 800.58 333.63 C 802.15 334.75 803.82 335.73 805.54 336.62 C 806.06 336.87 807.09 337.37 807.60 337.62 C 809.18 338.83 810.93 339.79 812.76 340.60 C 813.12 340.95 813.83 341.67 814.19 342.03 C 814.99 342.37 815.80 342.71 816.62 343.07 C 817.60 343.57 818.59 344.08 819.59 344.60 C 821.12 345.80 822.83 346.73 824.61 347.51 C 825.89 348.28 827.16 349.08 828.40 349.94 C 829.45 350.49 830.52 351.05 831.59 351.62 C 833.50 353.02 835.60 354.13 837.73 355.16 C 840.24 356.82 842.87 358.29 845.58 359.62 C 847.15 360.72 848.81 361.72 850.51 362.65 C 851.08 362.86 852.24 363.28 852.81 363.49 C 853.14 363.88 853.80 364.67 854.13 365.07 C 855.33 365.52 856.54 365.99 857.76 366.45 C 858.13 366.86 858.85 367.66 859.21 368.06 C 860.33 368.52 861.44 369.01 862.57 369.50 C 863.09 369.77 864.12 370.33 864.64 370.60 C 865.56 371.28 866.51 371.95 867.48 372.60 C 868.85 373.25 870.22 373.91 871.59 374.59 C 873.74 376.22 876.16 377.45 878.60 378.60 C 879.55 379.25 880.53 379.91 881.53 380.54 C 883.87 381.88 886.15 383.33 888.53 384.63 C 889.09 384.85 890.22 385.28 890.79 385.50 C 891.14 385.89 891.84 386.66 892.19 387.04 C 893.31 387.52 894.44 388.02 895.57 388.53 C 896.12 388.77 897.21 389.26 897.76 389.51 C 898.12 389.89 898.85 390.66 899.21 391.05 C 900.33 391.53 901.45 392.03 902.58 392.55 C 904.70 394.23 907.15 395.42 909.58 396.62 C 911.15 397.74 912.82 398.72 914.54 399.62 C 915.04 399.87 916.04 400.36 916.54 400.60 C 917.23 400.86 918.62 401.39 919.31 401.65 L 918.72 402.02 C 912.31 405.86 905.91 409.76 899.17 412.99 C 897.28 410.68 894.35 409.77 891.91 408.23 C 821.48 367.55 751.09 326.81 680.63 286.17 C 652.26 303.09 623.39 319.18 594.94 335.98 C 593.10 336.92 591.02 338.83 589.05 337.07 C 559.90 319.99 530.40 303.46 501.38 286.16 C 432.57 325.79 363.88 365.63 295.07 405.26 C 290.77 408.04 286.08 410.18 281.93 413.19 C 275.80 409.05 269.11 405.83 263.01 401.65 C 263.81 401.30 264.62 400.95 265.43 400.60 C 265.93 400.32 266.94 399.77 267.44 399.49 C 268.56 399.00 269.68 398.51 270.81 398.05 C 271.16 397.67 271.87 396.90 272.22 396.52 C 272.78 396.27 273.89 395.76 274.44 395.51 C 275.56 395.01 276.68 394.52 277.81 394.05 C 278.16 393.65 278.87 392.86 279.23 392.46 C 280.41 392.00 281.60 391.53 282.79 391.09 C 283.15 390.70 283.86 389.91 284.21 389.52 C 284.77 389.27 285.88 388.77 286.43 388.52 C 287.54 388.02 288.65 387.52 289.78 387.05 C 290.14 386.67 290.87 385.92 291.24 385.55 C 293.77 384.48 296.28 383.30 298.42 381.55 C 299.53 381.03 300.65 380.52 301.79 380.04 C 302.15 379.66 302.86 378.91 303.22 378.53 C 303.77 378.28 304.86 377.79 305.41 377.54 C 306.53 377.03 307.65 376.53 308.78 376.04 C 309.15 375.67 309.87 374.93 310.23 374.55 C 312.75 373.51 315.21 372.28 317.40 370.63 C 317.91 370.35 318.92 369.77 319.43 369.49 C 320.55 369.00 321.67 368.52 322.80 368.06 C 323.16 367.66 323.87 366.86 324.23 366.46 C 325.42 366.00 326.61 365.53 327.81 365.09 C 328.16 364.69 328.87 363.91 329.22 363.51 C 330.66 362.89 332.10 362.27 333.53 361.63 C 334.49 360.96 335.43 360.27 336.38 359.58 C 338.82 358.46 341.21 357.21 343.42 355.67 C 345.14 354.74 346.82 353.75 348.42 352.62 C 350.83 351.43 353.23 350.21 355.41 348.64 C 355.91 348.35 356.92 347.78 357.42 347.49 C 358.54 347.01 359.65 346.52 360.78 346.06 C 361.14 345.67 361.87 344.90 362.23 344.52 C 362.78 344.27 363.89 343.77 364.44 343.52 C 365.54 343.02 366.65 342.52 367.76 342.05 C 368.13 341.69 368.88 340.96 369.25 340.60 C 371.07 339.78 372.81 338.81 374.40 337.61 C 374.92 337.36 375.95 336.87 376.46 336.62 C 378.18 335.73 379.84 334.74 381.41 333.61 C 381.93 333.36 382.97 332.86 383.48 332.61 C 385.20 331.72 386.87 330.74 388.41 329.56 C 389.53 329.04 390.66 328.53 391.81 328.04 C 392.16 327.65 392.86 326.88 393.21 326.49 C 393.78 326.28 394.93 325.85 395.50 325.64 C 397.19 324.72 398.84 323.73 400.40 322.62 C 400.92 322.36 401.96 321.85 402.47 321.60 C 404.87 320.36 407.13 318.88 409.41 317.43 C 410.52 316.98 411.64 316.52 412.76 316.08 C 413.13 315.71 413.87 314.97 414.24 314.61 C 416.05 313.78 417.81 312.82 419.42 311.63 C 422.51 310.12 425.45 308.33 428.39 306.56 C 430.16 305.73 431.86 304.78 433.41 303.60 C 434.76 302.91 436.12 302.25 437.49 301.60 C 438.46 300.96 439.42 300.30 440.39 299.64 C 442.79 298.37 445.07 296.91 447.42 295.54 C 449.17 294.72 450.85 293.77 452.41 292.63 C 454.82 291.43 457.25 290.22 459.41 288.60 C 459.93 288.35 460.96 287.85 461.48 287.60 C 463.17 286.71 464.83 285.75 466.42 284.67 C 468.78 283.35 471.06 281.90 473.42 280.55 C 475.17 279.73 476.87 278.78 478.41 277.59 C 479.77 276.91 481.14 276.25 482.53 275.60 C 483.48 274.95 484.42 274.28 485.36 273.60 C 485.88 273.33 486.90 272.78 487.42 272.50 C 488.54 272.01 489.66 271.52 490.80 271.06 C 491.15 270.66 491.86 269.87 492.22 269.48 C 493.40 269.01 494.59 268.53 495.79 268.08 C 496.15 267.71 496.86 266.97 497.22 266.60 Z" />
<path fill="#32328d" opacity="1.00" d=" M 496.63 327.72 C 498.89 326.47 501.06 323.89 503.63 326.15 C 505.54 327.38 507.43 328.64 509.42 329.75 C 511.44 330.99 513.44 332.28 515.61 333.28 C 517.56 334.38 519.43 335.62 521.40 336.72 C 524.24 338.05 526.76 339.95 529.60 341.28 C 531.29 342.21 532.91 343.27 534.57 344.25 C 536.90 345.62 539.15 347.14 541.61 348.28 C 543.93 349.63 546.16 351.15 548.61 352.28 C 550.55 353.38 552.42 354.63 554.41 355.67 C 555.38 356.23 556.45 356.74 557.15 357.68 C 556.25 358.26 555.34 358.80 554.41 359.31 C 552.43 360.37 550.55 361.62 548.60 362.72 C 546.15 363.85 543.93 365.37 541.61 366.72 C 539.45 367.72 537.44 369.00 535.43 370.25 C 533.46 371.37 531.57 372.62 529.60 373.72 C 526.49 375.20 523.71 377.28 520.57 378.72 C 518.91 379.72 517.29 380.78 515.61 381.73 C 513.44 382.72 511.44 384.00 509.42 385.25 C 507.10 386.62 504.85 388.14 502.40 389.27 C 500.43 390.37 498.56 391.62 496.61 392.73 C 494.44 393.72 492.44 395.00 490.42 396.25 C 488.46 397.37 486.57 398.61 484.61 399.72 C 482.44 400.71 480.44 402.01 478.43 403.28 C 475.69 404.56 473.16 406.20 470.57 407.74 C 469.17 408.56 467.82 409.45 466.43 410.28 C 463.70 411.54 461.19 413.20 458.61 414.73 C 456.14 415.86 453.90 417.37 451.57 418.75 C 449.30 420.18 447.00 421.57 444.57 422.72 C 442.30 424.17 440.00 425.57 437.57 426.72 C 435.56 427.99 433.55 429.28 431.39 430.28 C 429.70 431.21 428.09 432.27 426.43 433.25 C 424.46 434.36 422.57 435.61 420.61 436.72 C 418.14 437.84 415.90 439.37 413.61 440.79 C 413.10 441.01 412.07 441.44 411.56 441.66 C 409.92 442.70 408.31 443.78 406.62 444.73 C 404.45 445.71 402.44 447.00 400.43 448.25 C 398.46 449.37 396.58 450.61 394.61 451.72 C 391.76 453.05 389.23 454.95 386.39 456.28 C 384.70 457.21 383.08 458.27 381.42 459.26 C 379.46 460.37 377.57 461.61 375.61 462.73 C 374.31 463.37 373.04 464.04 371.78 464.74 C 353.00 454.28 334.55 443.20 315.81 432.65 C 317.87 430.98 320.09 429.51 322.42 428.25 C 324.09 427.27 325.70 426.21 327.39 425.28 C 329.84 424.15 332.07 422.63 334.39 421.28 C 336.85 420.14 339.09 418.62 341.42 417.26 C 343.08 416.27 344.70 415.21 346.39 414.28 C 348.84 413.15 351.06 411.63 353.39 410.28 C 356.23 408.95 358.76 407.05 361.60 405.72 C 363.58 404.62 365.46 403.37 367.42 402.25 C 369.44 401.00 371.45 399.72 373.61 398.72 C 376.19 397.19 378.70 395.54 381.44 394.28 C 382.82 393.45 384.17 392.55 385.57 391.74 C 387.54 390.63 389.42 389.38 391.40 388.28 C 394.24 386.95 396.76 385.05 399.61 383.72 C 401.29 382.78 402.91 381.72 404.57 380.74 C 406.53 379.63 408.42 378.38 410.39 377.29 C 413.23 375.95 415.76 374.05 418.61 372.72 C 420.93 371.37 423.16 369.85 425.60 368.72 C 427.57 367.62 429.46 366.37 431.42 365.25 C 433.44 364.00 435.45 362.72 437.62 361.72 C 439.93 360.36 442.16 358.85 444.60 357.72 C 446.57 356.62 448.46 355.37 450.42 354.25 C 452.44 353.00 454.44 351.72 456.61 350.73 C 458.93 349.37 461.16 347.85 463.61 346.72 C 465.93 345.37 468.15 343.85 470.60 342.72 C 472.57 341.61 474.46 340.37 476.43 339.26 C 478.08 338.27 479.70 337.21 481.40 336.28 C 484.24 334.95 486.76 333.05 489.61 331.72 C 491.93 330.37 494.17 328.84 496.63 327.72 Z" />
<path fill="#32328d" opacity="1.00" d=" M 678.37 326.14 C 681.38 323.61 683.78 327.38 686.60 328.28 C 688.93 329.62 691.15 331.15 693.61 332.28 C 695.56 333.37 697.43 334.62 699.39 335.73 C 701.55 336.72 703.56 338.00 705.58 339.25 C 707.90 340.63 710.15 342.14 712.61 343.27 C 714.93 344.63 717.15 346.15 719.60 347.28 C 721.57 348.38 723.45 349.63 725.42 350.74 C 727.08 351.72 728.70 352.78 730.40 353.72 C 733.24 355.05 735.76 356.95 738.61 358.28 C 740.93 359.63 743.15 361.15 745.60 362.28 C 747.57 363.38 749.46 364.63 751.43 365.75 C 753.70 367.18 755.99 368.57 758.43 369.72 C 760.08 370.71 761.69 371.78 763.39 372.72 C 765.84 373.84 768.06 375.37 770.39 376.73 C 772.55 377.72 774.55 379.00 776.58 380.25 C 778.90 381.62 781.15 383.14 783.61 384.28 C 785.56 385.38 787.43 386.62 789.39 387.72 C 792.23 389.04 794.76 390.95 797.61 392.28 C 799.29 393.21 800.91 394.27 802.57 395.25 C 805.16 396.79 807.69 398.44 810.43 399.72 C 812.08 400.71 813.69 401.78 815.39 402.73 C 817.84 403.85 820.08 405.37 822.42 406.74 C 824.07 407.72 825.69 408.78 827.39 409.72 C 830.23 411.05 832.76 412.95 835.60 414.28 C 837.29 415.21 838.91 416.27 840.58 417.26 C 842.90 418.62 845.15 420.14 847.61 421.28 C 849.56 422.37 851.43 423.62 853.39 424.72 C 855.55 425.72 857.55 427.01 859.58 428.24 C 861.89 429.51 864.11 430.98 866.18 432.63 C 847.44 443.22 828.98 454.31 810.17 464.77 C 807.61 463.33 805.14 461.74 802.60 460.28 C 799.76 458.95 797.24 457.05 794.40 455.72 C 792.43 454.62 790.56 453.38 788.61 452.28 C 786.44 451.28 784.44 449.99 782.42 448.75 C 780.09 447.37 777.84 445.85 775.39 444.72 C 773.43 443.62 771.56 442.37 769.61 441.28 C 767.15 440.15 764.93 438.63 762.62 437.28 C 760.45 436.28 758.44 435.00 756.43 433.75 C 754.10 432.37 751.85 430.86 749.39 429.73 C 747.06 428.37 744.84 426.85 742.39 425.72 C 740.70 424.78 739.08 423.72 737.43 422.74 C 735.46 421.63 733.57 420.38 731.61 419.29 C 728.76 417.95 726.24 416.05 723.39 414.72 C 721.70 413.78 720.08 412.72 718.42 411.74 C 716.45 410.62 714.57 409.38 712.60 408.28 C 710.15 407.15 707.93 405.63 705.61 404.28 C 703.15 403.14 700.90 401.62 698.57 400.25 C 696.55 399.00 694.55 397.72 692.39 396.73 C 690.69 395.78 689.08 394.71 687.45 393.69 C 686.47 393.22 685.50 392.76 684.54 392.31 C 683.37 391.57 682.26 390.73 681.07 390.06 C 680.16 390.40 679.26 390.76 678.37 391.15 C 676.72 392.19 675.10 393.27 673.43 394.27 C 670.83 395.78 668.31 397.44 665.57 398.72 C 663.91 399.71 662.30 400.78 660.61 401.73 C 658.44 402.72 656.44 404.00 654.42 405.25 C 652.45 406.37 650.57 407.62 648.60 408.72 C 645.76 410.05 643.23 411.95 640.39 413.28 C 638.07 414.62 635.84 416.14 633.40 417.28 C 631.42 418.38 629.54 419.63 627.57 420.74 C 625.91 421.72 624.29 422.78 622.60 423.72 C 619.76 425.05 617.23 426.95 614.40 428.28 C 612.42 429.38 610.54 430.62 608.58 431.75 C 606.55 432.99 604.55 434.27 602.39 435.28 C 600.43 436.38 598.56 437.62 596.61 438.72 C 593.76 440.04 591.24 441.95 588.40 443.28 C 586.42 444.38 584.54 445.63 582.57 446.74 C 580.90 447.72 579.27 448.79 577.61 449.79 C 577.09 450.01 576.07 450.44 575.55 450.66 C 573.92 451.70 572.31 452.78 570.62 453.73 C 568.44 454.71 566.44 456.00 564.43 457.25 C 562.46 458.37 560.57 459.62 558.60 460.72 C 555.76 462.05 553.24 463.95 550.40 465.28 C 548.43 466.37 546.56 467.61 544.61 468.72 C 542.15 469.86 539.90 471.37 537.58 472.75 C 535.55 473.99 533.55 475.27 531.39 476.28 C 529.43 477.38 527.56 478.62 525.61 479.73 C 523.14 480.86 520.90 482.38 518.57 483.75 C 516.55 484.99 514.55 486.28 512.39 487.27 C 510.70 488.21 509.09 489.28 507.43 490.28 C 504.29 491.71 501.51 493.80 498.39 495.28 C 496.70 496.21 495.08 497.27 493.42 498.26 C 491.46 499.37 489.57 500.61 487.61 501.72 C 485.16 502.85 482.93 504.36 480.61 505.72 C 478.16 506.85 475.93 508.36 473.62 509.72 C 471.15 510.85 468.90 512.37 466.58 513.76 C 465.06 514.62 463.60 515.56 462.08 516.41 L 461.99 516.96 C 444.30 506.65 426.53 496.49 408.84 486.19 C 407.93 485.59 407.05 484.96 406.21 484.30 C 406.00 484.13 405.59 483.80 405.39 483.64 C 406.79 483.01 408.20 482.39 409.62 481.80 C 411.56 480.62 413.44 479.36 415.42 478.25 C 417.44 477.01 419.44 475.72 421.61 474.72 C 423.56 473.62 425.43 472.38 427.39 471.28 C 429.85 470.14 432.09 468.62 434.42 467.25 C 436.44 466.00 438.44 464.72 440.60 463.73 C 442.56 462.62 444.43 461.37 446.40 460.28 C 449.24 458.95 451.76 457.05 454.61 455.71 C 456.58 454.61 458.46 453.36 460.43 452.26 C 461.82 451.44 463.17 450.54 464.57 449.72 C 467.29 448.45 469.81 446.80 472.39 445.27 C 474.85 444.14 477.09 442.62 479.42 441.25 C 481.44 440.00 483.44 438.72 485.61 437.73 C 487.93 436.37 490.16 434.85 492.61 433.72 C 494.56 432.62 496.43 431.37 498.40 430.27 C 500.55 429.27 502.56 427.99 504.58 426.75 C 506.90 425.37 509.15 423.86 511.61 422.72 C 513.56 421.62 515.43 420.38 517.39 419.28 C 519.84 418.14 522.09 416.62 524.42 415.26 C 526.08 414.27 527.70 413.21 529.39 412.28 C 531.84 411.15 534.07 409.63 536.39 408.28 C 538.84 407.15 541.07 405.63 543.39 404.27 C 545.55 403.27 547.55 401.99 549.58 400.76 C 551.28 399.79 552.90 398.70 554.56 397.66 C 555.07 397.44 556.09 397.01 556.61 396.79 C 558.54 395.63 560.42 394.37 562.39 393.27 C 564.55 392.28 566.55 390.99 568.58 389.75 C 570.53 388.62 572.42 387.38 574.40 386.28 C 577.24 384.95 579.76 383.04 582.61 381.72 C 584.93 380.37 587.16 378.85 589.60 377.72 C 591.57 376.61 593.46 375.36 595.43 374.26 C 596.82 373.44 598.17 372.54 599.57 371.72 C 602.71 370.28 605.48 368.19 608.61 366.72 C 611.19 365.20 613.70 363.55 616.43 362.28 C 618.09 361.27 619.72 360.21 621.42 359.25 C 623.08 358.27 624.70 357.21 626.39 356.28 C 628.55 355.28 630.55 353.99 632.56 352.72 C 635.30 351.44 637.83 349.80 640.42 348.25 C 642.44 347.00 644.45 345.72 646.61 344.73 C 648.93 343.36 651.16 341.85 653.61 340.72 C 655.93 339.37 658.16 337.85 660.61 336.72 C 662.57 335.61 664.46 334.36 666.43 333.26 C 668.08 332.27 669.70 331.21 671.39 330.28 C 673.86 329.16 676.12 327.64 678.37 326.14 Z" />
<path fill="#32328d" opacity="1.00" d=" M 679.78 428.85 C 681.06 429.23 682.33 429.68 683.61 430.13 C 685.87 431.63 688.12 433.16 690.60 434.28 C 692.57 435.38 694.45 436.63 696.42 437.74 C 698.08 438.72 699.70 439.78 701.40 440.72 C 704.24 442.05 706.76 443.95 709.61 445.28 C 712.19 446.80 714.70 448.45 717.43 449.72 C 719.09 450.72 720.72 451.79 722.42 452.74 C 724.08 453.72 725.70 454.78 727.39 455.72 C 730.23 457.05 732.76 458.95 735.60 460.28 C 737.56 461.37 739.43 462.62 741.39 463.72 C 743.84 464.86 746.09 466.37 748.42 467.74 C 750.08 468.72 751.70 469.78 753.40 470.72 C 756.23 472.05 758.76 473.95 761.60 475.28 C 763.57 476.38 765.45 477.63 767.43 478.73 C 769.09 479.72 770.70 480.80 772.38 481.80 C 773.79 482.39 775.18 483.00 776.60 483.62 C 776.39 483.80 775.98 484.17 775.78 484.35 C 764.89 491.47 753.25 497.44 742.13 504.20 C 734.80 508.39 727.52 512.66 720.10 516.68 C 718.27 515.52 716.47 514.31 714.59 513.25 C 712.55 512.01 710.55 510.72 708.39 509.73 C 706.43 508.62 704.56 507.37 702.60 506.28 C 699.76 504.95 697.24 503.05 694.40 501.72 C 692.70 500.78 691.08 499.72 689.42 498.74 C 687.72 497.78 686.09 496.72 684.43 495.72 C 681.29 494.28 678.51 492.20 675.39 490.72 C 673.06 489.37 670.84 487.85 668.39 486.72 C 666.70 485.78 665.08 484.72 663.42 483.74 C 661.72 482.79 660.09 481.72 658.43 480.72 C 655.70 479.45 653.18 477.80 650.61 476.27 C 648.44 475.27 646.44 473.99 644.42 472.75 C 642.09 471.37 639.85 469.86 637.39 468.73 C 634.81 467.20 632.29 465.56 629.58 464.26 C 627.96 463.32 626.37 462.32 624.72 461.45 C 626.66 460.20 628.58 458.91 630.57 457.72 C 632.54 456.63 634.42 455.38 636.39 454.28 C 639.23 452.95 641.76 451.05 644.60 449.72 C 646.29 448.78 647.91 447.73 649.57 446.74 C 651.90 445.37 654.15 443.86 656.61 442.72 C 658.93 441.36 661.16 439.85 663.61 438.73 C 665.93 437.37 668.16 435.85 670.61 434.72 C 672.28 433.78 673.90 432.72 675.59 431.78 C 677.09 430.96 678.48 429.97 679.78 428.85 Z" />
<path fill="#32328d" opacity="1.00" d=" M 589.77 480.80 C 591.36 481.30 592.92 481.94 594.46 482.62 C 597.20 484.12 599.77 485.94 602.61 487.28 C 604.56 488.37 606.43 489.62 608.39 490.73 C 610.55 491.72 612.55 493.00 614.58 494.25 C 617.16 495.80 619.69 497.44 622.43 498.72 C 624.08 499.71 625.69 500.78 627.39 501.72 C 630.51 503.19 633.28 505.28 636.43 506.72 C 637.82 507.54 639.17 508.44 640.57 509.26 C 642.54 510.37 644.42 511.61 646.40 512.72 C 648.84 513.85 651.07 515.37 653.39 516.72 C 655.84 517.86 658.09 519.37 660.43 520.75 C 662.44 521.99 664.44 523.27 666.61 524.27 C 668.56 525.37 670.43 526.62 672.39 527.73 C 674.55 528.72 676.56 530.00 678.58 531.26 C 680.54 532.38 682.44 533.62 684.42 534.73 C 685.30 535.23 686.18 535.76 687.06 536.30 C 674.14 543.13 661.71 550.85 648.97 558.01 C 631.81 567.81 614.85 577.93 597.62 587.60 C 595.63 588.74 593.72 590.03 591.84 591.35 C 579.39 585.53 567.91 577.87 555.89 571.22 C 538.77 561.31 521.62 551.45 504.50 541.54 C 501.40 539.64 498.19 537.93 494.94 536.32 C 495.79 535.77 496.67 535.24 497.56 534.74 C 499.26 533.79 500.90 532.73 502.58 531.74 C 504.54 530.62 506.42 529.38 508.39 528.28 C 510.84 527.15 513.07 525.63 515.39 524.27 C 517.85 523.13 520.10 521.62 522.42 520.25 C 524.44 519.00 526.45 517.72 528.61 516.72 C 530.93 515.36 533.16 513.85 535.61 512.72 C 537.57 511.61 539.46 510.36 541.43 509.25 C 543.44 508.00 545.45 506.72 547.61 505.73 C 549.93 504.37 552.16 502.85 554.61 501.72 C 556.29 500.78 557.91 499.72 559.58 498.74 C 561.54 497.62 563.42 496.38 565.39 495.28 C 567.84 494.15 570.07 492.63 572.39 491.28 C 574.55 490.27 576.55 488.99 578.58 487.75 C 580.54 486.62 582.42 485.37 584.39 484.27 C 586.37 483.43 588.26 482.36 589.77 480.80 Z" />
</g>
<g id="#ffffffff">
<path fill="#ffffff" opacity="1.00" d=" M 295.07 405.26 C 363.88 365.63 432.57 325.79 501.38 286.16 C 530.40 303.46 559.90 319.99 589.05 337.07 C 591.02 338.83 593.10 336.92 594.94 335.98 C 623.39 319.18 652.26 303.09 680.63 286.17 C 751.09 326.81 821.48 367.55 891.91 408.23 C 894.35 409.77 897.28 410.68 899.17 412.99 C 898.77 496.67 899.12 580.36 898.99 664.04 C 899.42 666.19 896.96 666.82 895.60 667.81 C 894.20 668.58 892.85 669.44 891.49 670.27 C 890.51 670.73 889.53 671.21 888.57 671.69 C 887.17 672.53 885.81 673.41 884.43 674.26 C 882.73 675.23 881.09 676.27 879.44 677.31 C 878.46 677.76 877.49 678.22 876.52 678.68 C 875.16 679.54 873.83 680.44 872.49 681.31 C 871.51 681.76 870.54 682.21 869.59 682.68 C 867.90 683.71 866.23 684.78 864.52 685.77 C 863.13 686.59 861.79 687.47 860.44 688.32 C 859.46 688.76 858.50 689.21 857.55 689.67 C 856.18 690.53 854.84 691.43 853.49 692.31 C 852.51 692.75 851.54 693.21 850.58 693.68 C 848.91 694.71 847.26 695.76 845.57 696.74 C 844.18 697.57 842.82 698.45 841.46 699.31 C 840.48 699.76 839.50 700.21 838.53 700.68 C 837.16 701.54 835.82 702.44 834.47 703.32 C 833.48 703.77 832.50 704.23 831.53 704.69 C 830.15 705.54 828.79 706.43 827.41 707.27 C 825.74 708.22 824.12 709.26 822.50 710.28 C 821.52 710.73 820.55 711.20 819.58 711.67 C 818.18 712.53 816.80 713.44 815.40 714.31 C 813.47 715.55 809.73 716.01 810.01 718.95 C 810.00 751.99 809.98 785.04 810.02 818.08 C 810.77 821.61 806.63 822.59 804.47 824.36 C 803.47 824.79 802.49 825.22 801.52 825.67 C 800.15 826.54 798.80 827.45 797.44 828.34 C 796.46 828.78 795.49 829.23 794.53 829.69 C 793.16 830.53 791.82 831.41 790.45 832.25 C 788.75 833.21 787.11 834.26 785.46 835.30 C 784.47 835.75 783.49 836.21 782.52 836.69 C 781.16 837.54 779.82 838.45 778.47 839.32 C 777.48 839.77 776.51 840.23 775.54 840.70 C 773.90 841.71 772.27 842.75 770.61 843.72 C 769.21 844.55 767.86 845.43 766.49 846.29 C 765.50 846.74 764.53 847.20 763.57 847.66 C 762.18 848.53 760.83 849.44 759.47 850.32 C 758.50 850.76 757.54 851.22 756.59 851.68 C 754.32 853.14 752.01 854.52 749.60 855.73 C 748.19 856.55 746.81 857.42 745.41 858.25 C 743.72 859.23 742.08 860.28 740.43 861.32 C 739.45 861.77 738.49 862.22 737.54 862.69 C 735.90 863.71 734.29 864.76 732.66 865.78 C 732.14 866.00 731.09 866.44 730.57 866.66 C 728.92 867.69 727.28 868.75 725.59 869.74 C 724.18 870.57 722.80 871.46 721.41 872.33 C 720.43 872.78 719.46 873.23 718.50 873.69 C 717.15 874.54 715.83 875.44 714.50 876.30 C 713.52 876.75 712.55 877.20 711.58 877.67 C 710.19 878.52 708.82 879.41 707.42 880.26 C 705.74 881.22 704.12 882.26 702.48 883.29 C 701.51 883.73 700.54 884.19 699.58 884.66 C 698.19 885.52 696.83 886.44 695.46 887.32 C 694.48 887.77 693.51 888.23 692.55 888.70 C 690.91 889.70 689.30 890.74 687.64 891.71 C 686.22 892.54 684.83 893.44 683.44 894.32 C 682.46 894.76 681.49 895.21 680.53 895.68 C 679.16 896.54 677.81 897.45 676.45 898.34 C 675.47 898.77 674.51 899.21 673.55 899.66 C 672.17 900.53 670.81 901.45 669.44 902.33 C 668.46 902.78 667.48 903.24 666.51 903.71 C 664.89 904.72 663.28 905.75 661.63 906.71 C 660.21 907.55 658.82 908.45 657.42 909.33 C 656.44 909.77 655.48 910.23 654.52 910.69 C 653.14 911.55 651.79 912.46 650.42 913.35 C 649.44 913.79 648.46 914.25 647.49 914.71 C 646.15 915.54 644.83 916.41 643.48 917.23 C 641.50 918.35 639.58 919.58 637.65 920.77 C 637.12 920.98 636.08 921.42 635.55 921.64 C 634.18 922.52 632.84 923.43 631.47 924.32 C 630.49 924.77 629.52 925.22 628.55 925.69 C 626.89 926.71 625.26 927.76 623.58 928.74 C 622.18 929.57 620.82 930.45 619.45 931.31 C 618.45 931.77 617.45 932.24 616.46 932.71 C 615.12 933.56 613.80 934.46 612.47 935.32 C 611.47 935.77 610.48 936.23 609.51 936.71 C 608.14 937.54 606.81 938.42 605.44 939.25 C 603.74 940.22 602.08 941.28 600.41 942.32 C 599.46 942.76 598.52 943.21 597.58 943.67 C 595.86 944.77 594.16 945.92 592.37 946.91 C 592.09 946.99 591.52 947.15 591.23 947.22 C 590.80 947.10 589.95 946.84 589.52 946.71 C 523.53 908.60 457.56 870.43 391.57 832.32 C 385.06 828.43 378.23 825.07 371.94 820.83 C 372.09 789.54 371.95 758.24 372.01 726.94 C 371.67 723.68 372.84 719.80 371.34 716.93 C 345.26 701.89 319.19 686.75 293.08 671.75 C 289.45 669.56 285.89 667.25 282.00 665.57 C 281.95 581.44 282.10 497.32 281.93 413.19 C 286.08 410.18 290.77 408.04 295.07 405.26 M 496.63 327.72 C 494.17 328.84 491.93 330.37 489.61 331.72 C 486.76 333.05 484.24 334.95 481.40 336.28 C 479.70 337.21 478.08 338.27 476.43 339.26 C 474.46 340.37 472.57 341.61 470.60 342.72 C 468.15 343.85 465.93 345.37 463.61 346.72 C 461.16 347.85 458.93 349.37 456.61 350.73 C 454.44 351.72 452.44 353.00 450.42 354.25 C 448.46 355.37 446.57 356.62 444.60 357.72 C 442.16 358.85 439.93 360.36 437.62 361.72 C 435.45 362.72 433.44 364.00 431.42 365.25 C 429.46 366.37 427.57 367.62 425.60 368.72 C 423.16 369.85 420.93 371.37 418.61 372.72 C 415.76 374.05 413.23 375.95 410.39 377.29 C 408.42 378.38 406.53 379.63 404.57 380.74 C 402.91 381.72 401.29 382.78 399.61 383.72 C 396.76 385.05 394.24 386.95 391.40 388.28 C 389.42 389.38 387.54 390.63 385.57 391.74 C 384.17 392.55 382.82 393.45 381.44 394.28 C 378.70 395.54 376.19 397.19 373.61 398.72 C 371.45 399.72 369.44 401.00 367.42 402.25 C 365.46 403.37 363.58 404.62 361.60 405.72 C 358.76 407.05 356.23 408.95 353.39 410.28 C 351.06 411.63 348.84 413.15 346.39 414.28 C 344.70 415.21 343.08 416.27 341.42 417.26 C 339.09 418.62 336.85 420.14 334.39 421.28 C 332.07 422.63 329.84 424.15 327.39 425.28 C 325.70 426.21 324.09 427.27 322.42 428.25 C 320.09 429.51 317.87 430.98 315.81 432.65 C 316.25 449.08 315.88 465.53 316.00 481.96 C 316.00 536.86 316.00 591.76 316.00 646.66 C 317.49 647.29 318.97 647.97 320.44 648.66 C 322.42 649.99 324.42 651.29 326.61 652.28 C 328.30 653.21 329.91 654.27 331.58 655.26 C 333.54 656.37 335.42 657.61 337.39 658.72 C 340.24 660.04 342.76 661.95 345.61 663.28 C 347.29 664.21 348.91 665.27 350.57 666.26 C 352.54 667.36 354.42 668.61 356.39 669.72 C 359.51 671.19 362.29 673.28 365.42 674.72 C 367.43 675.98 369.44 677.28 371.61 678.28 C 373.57 679.38 375.45 680.63 377.42 681.74 C 379.08 682.72 380.70 683.78 382.39 684.72 C 384.84 685.84 387.06 687.37 389.39 688.73 C 391.84 689.84 394.06 691.37 396.39 692.72 C 398.84 693.85 401.09 695.37 403.42 696.74 C 405.08 697.72 406.70 698.78 408.39 699.72 C 411.51 701.19 414.28 703.28 417.43 704.72 C 418.82 705.53 420.17 706.44 421.57 707.26 C 423.54 708.36 425.42 709.61 427.39 710.72 C 429.84 711.84 432.07 713.37 434.39 714.72 C 436.84 715.84 439.07 717.36 441.39 718.72 C 443.85 719.85 446.09 721.38 448.42 722.74 C 450.09 723.72 451.71 724.79 453.39 725.79 C 453.90 726.01 454.93 726.44 455.44 726.66 C 457.67 728.18 459.97 729.58 462.43 730.72 C 464.09 731.71 465.72 732.78 467.42 733.75 C 469.69 735.17 471.99 736.57 474.43 737.71 C 476.08 738.71 477.69 739.78 479.39 740.72 C 481.84 741.84 484.06 743.37 486.39 744.73 C 488.55 745.72 490.55 747.00 492.58 748.25 C 494.90 749.62 497.15 751.14 499.61 752.27 C 501.30 753.21 502.91 754.28 504.57 755.28 C 507.71 756.71 510.49 758.80 513.61 760.28 C 515.58 761.38 517.46 762.63 519.44 763.73 C 520.83 764.55 522.17 765.47 523.55 766.34 C 524.07 766.56 525.10 766.99 525.62 767.21 C 527.90 768.63 530.14 770.15 532.61 771.28 C 534.29 772.21 535.91 773.27 537.58 774.26 C 540.16 775.79 542.69 777.44 545.43 778.72 C 547.43 779.98 549.43 781.28 551.61 782.28 C 553.56 783.37 555.43 784.62 557.39 785.72 C 559.55 786.72 561.56 788.00 563.59 789.26 C 565.91 790.62 568.15 792.14 570.61 793.27 C 572.30 794.21 573.91 795.28 575.57 796.28 C 578.30 797.55 580.83 799.20 583.43 800.73 C 585.09 801.72 586.71 802.79 588.37 803.81 C 589.57 804.29 590.77 804.80 591.99 805.30 L 591.99 804.28 C 592.60 804.05 593.82 803.60 594.43 803.37 C 595.81 802.49 597.15 801.55 598.57 800.72 C 600.54 799.64 602.41 798.38 604.38 797.28 C 606.85 796.16 609.08 794.63 611.38 793.21 C 611.90 792.99 612.93 792.56 613.44 792.34 C 615.08 791.29 616.70 790.19 618.42 789.27 C 619.82 788.44 621.17 787.51 622.56 786.66 C 623.07 786.44 624.10 786.01 624.62 785.79 C 626.56 784.63 628.44 783.36 630.38 782.21 C 630.90 781.99 631.93 781.57 632.45 781.35 C 633.82 780.47 635.16 779.53 636.57 778.70 C 639.01 777.58 641.30 776.16 643.58 774.74 C 645.54 773.63 647.41 772.37 649.38 771.28 C 651.56 770.29 653.56 768.98 655.57 767.71 C 658.31 766.45 660.82 764.78 663.42 763.27 C 664.82 762.44 666.16 761.52 667.56 760.68 C 668.51 760.22 669.48 759.77 670.45 759.32 C 672.09 758.28 673.70 757.19 675.38 756.21 C 675.90 755.99 676.93 755.57 677.45 755.36 C 678.82 754.47 680.16 753.53 681.56 752.67 C 683.52 751.43 687.38 751.05 687.00 747.99 C 686.96 726.84 687.10 705.69 686.92 684.54 C 685.39 685.40 683.94 686.39 682.44 687.31 C 681.47 687.76 680.51 688.21 679.55 688.68 C 678.16 689.53 676.83 690.46 675.45 691.32 C 674.48 691.77 673.51 692.22 672.55 692.69 C 671.16 693.53 669.82 694.44 668.42 695.27 C 666.70 696.19 665.08 697.28 663.44 698.32 C 662.47 698.76 661.50 699.22 660.54 699.67 C 659.15 700.53 657.82 701.47 656.45 702.36 C 655.93 702.57 654.89 702.99 654.37 703.20 C 652.70 704.20 651.08 705.29 649.45 706.35 C 648.93 706.57 647.90 707.00 647.38 707.21 C 645.71 708.20 644.09 709.28 642.42 710.27 C 640.45 711.36 638.58 712.62 636.62 713.72 C 634.43 714.69 632.43 716.00 630.44 717.32 C 629.47 717.76 628.51 718.22 627.56 718.69 C 626.16 719.52 624.82 720.44 623.42 721.27 C 620.82 722.78 618.31 724.45 615.57 725.71 C 613.90 726.70 612.28 727.79 610.62 728.79 C 610.10 729.01 609.07 729.43 608.55 729.65 C 606.91 730.69 605.29 731.79 603.62 732.80 C 603.11 733.01 602.07 733.44 601.56 733.65 C 600.17 734.51 598.82 735.44 597.43 736.29 C 595.58 737.28 593.83 738.43 592.00 739.46 L 592.00 740.28 C 591.39 740.05 590.17 739.59 589.57 739.37 C 587.92 738.30 586.29 737.20 584.59 736.25 C 582.55 735.01 580.55 733.71 578.39 732.73 C 576.70 731.78 575.08 730.71 573.43 729.72 C 570.29 728.28 567.51 726.19 564.40 724.72 C 562.42 723.61 560.54 722.37 558.58 721.26 C 556.30 719.82 554.00 718.42 551.57 717.28 C 549.91 716.28 548.30 715.21 546.61 714.27 C 544.14 713.14 541.90 711.61 539.57 710.25 C 537.55 709.00 535.55 707.71 533.39 706.73 C 530.81 705.19 528.29 703.54 525.57 702.28 C 523.56 701.01 521.56 699.71 519.39 698.72 C 517.70 697.78 516.08 696.72 514.42 695.74 C 512.72 694.78 511.09 693.71 509.42 692.72 C 506.01 691.14 502.99 688.86 499.57 687.28 C 498.17 686.45 496.82 685.55 495.43 684.74 C 492.83 683.20 490.30 681.56 487.57 680.28 C 485.56 679.00 483.55 677.71 481.39 676.72 C 478.81 675.19 476.30 673.54 473.57 672.28 C 471.90 671.28 470.27 670.21 468.58 669.25 C 466.55 668.00 464.55 666.71 462.39 665.73 C 459.81 664.19 457.30 662.54 454.58 661.28 C 452.90 660.28 451.27 659.20 449.58 658.25 C 447.55 657.00 445.55 655.71 443.38 654.72 C 441.06 653.37 438.84 651.84 436.39 650.73 C 434.70 649.78 433.08 648.71 431.43 647.71 C 428.99 646.57 426.69 645.17 424.42 643.75 C 422.09 642.37 419.85 640.85 417.39 639.73 C 415.07 638.37 412.84 636.84 410.39 635.73 C 408.07 634.37 405.84 632.84 403.39 631.72 C 401.70 630.78 400.09 629.72 398.43 628.75 C 396.72 627.79 395.09 626.71 393.43 625.72 C 390.01 624.14 386.99 621.86 383.58 620.28 C 381.90 619.27 380.27 618.20 378.56 617.27 C 377.16 616.43 375.82 615.50 374.44 614.64 C 373.83 614.41 372.61 613.95 372.00 613.72 C 372.00 580.48 372.00 547.25 372.00 514.02 C 371.86 497.60 372.28 481.16 371.78 464.74 C 373.04 464.04 374.31 463.37 375.61 462.73 C 377.57 461.61 379.46 460.37 381.42 459.26 C 383.08 458.27 384.70 457.21 386.39 456.28 C 389.23 454.95 391.76 453.05 394.61 451.72 C 396.58 450.61 398.46 449.37 400.43 448.25 C 402.44 447.00 404.45 445.71 406.62 444.73 C 408.31 443.78 409.92 442.70 411.56 441.66 C 412.07 441.44 413.10 441.01 413.61 440.79 C 415.90 439.37 418.14 437.84 420.61 436.72 C 422.57 435.61 424.46 434.36 426.43 433.25 C 428.09 432.27 429.70 431.21 431.39 430.28 C 433.55 429.28 435.56 427.99 437.57 426.72 C 440.00 425.57 442.30 424.17 444.57 422.72 C 447.00 421.57 449.30 420.18 451.57 418.75 C 453.90 417.37 456.14 415.86 458.61 414.73 C 461.19 413.20 463.70 411.54 466.43 410.28 C 467.82 409.45 469.17 408.56 470.57 407.74 C 473.16 406.20 475.69 404.56 478.43 403.28 C 480.44 402.01 482.44 400.71 484.61 399.72 C 486.57 398.61 488.46 397.37 490.42 396.25 C 492.44 395.00 494.44 393.72 496.61 392.73 C 498.56 391.62 500.43 390.37 502.40 389.27 C 504.85 388.14 507.10 386.62 509.42 385.25 C 511.44 384.00 513.44 382.72 515.61 381.73 C 517.29 380.78 518.91 379.72 520.57 378.72 C 523.71 377.28 526.49 375.20 529.60 373.72 C 531.57 372.62 533.46 371.37 535.43 370.25 C 537.44 369.00 539.45 367.72 541.61 366.72 C 543.93 365.37 546.15 363.85 548.60 362.72 C 550.55 361.62 552.43 360.37 554.41 359.31 C 555.34 358.80 556.25 358.26 557.15 357.68 C 556.45 356.74 555.38 356.23 554.41 355.67 C 552.42 354.63 550.55 353.38 548.61 352.28 C 546.16 351.15 543.93 349.63 541.61 348.28 C 539.15 347.14 536.90 345.62 534.57 344.25 C 532.91 343.27 531.29 342.21 529.60 341.28 C 526.76 339.95 524.24 338.05 521.40 336.72 C 519.43 335.62 517.56 334.38 515.61 333.28 C 513.44 332.28 511.44 330.99 509.42 329.75 C 507.43 328.64 505.54 327.38 503.63 326.15 C 501.06 323.89 498.89 326.47 496.63 327.72 M 678.37 326.14 C 676.12 327.64 673.86 329.16 671.39 330.28 C 669.70 331.21 668.08 332.27 666.43 333.26 C 664.46 334.36 662.57 335.61 660.61 336.72 C 658.16 337.85 655.93 339.37 653.61 340.72 C 651.16 341.85 648.93 343.36 646.61 344.73 C 644.45 345.72 642.44 347.00 640.42 348.25 C 637.83 349.80 635.30 351.44 632.56 352.72 C 630.55 353.99 628.55 355.28 626.39 356.28 C 624.70 357.21 623.08 358.27 621.42 359.25 C 619.72 360.21 618.09 361.27 616.43 362.28 C 613.70 363.55 611.19 365.20 608.61 366.72 C 605.48 368.19 602.71 370.28 599.57 371.72 C 598.17 372.54 596.82 373.44 595.43 374.26 C 593.46 375.36 591.57 376.61 589.60 377.72 C 587.16 378.85 584.93 380.37 582.61 381.72 C 579.76 383.04 577.24 384.95 574.40 386.28 C 572.42 387.38 570.53 388.62 568.58 389.75 C 566.55 390.99 564.55 392.28 562.39 393.27 C 560.42 394.37 558.54 395.63 556.61 396.79 C 556.09 397.01 555.07 397.44 554.56 397.66 C 552.90 398.70 551.28 399.79 549.58 400.76 C 547.55 401.99 545.55 403.27 543.39 404.27 C 541.07 405.63 538.84 407.15 536.39 408.28 C 534.07 409.63 531.84 411.15 529.39 412.28 C 527.70 413.21 526.08 414.27 524.42 415.26 C 522.09 416.62 519.84 418.14 517.39 419.28 C 515.43 420.38 513.56 421.62 511.61 422.72 C 509.15 423.86 506.90 425.37 504.58 426.75 C 502.56 427.99 500.55 429.27 498.40 430.27 C 496.43 431.37 494.56 432.62 492.61 433.72 C 490.16 434.85 487.93 436.37 485.61 437.73 C 483.44 438.72 481.44 440.00 479.42 441.25 C 477.09 442.62 474.85 444.14 472.39 445.27 C 469.81 446.80 467.29 448.45 464.57 449.72 C 463.17 450.54 461.82 451.44 460.43 452.26 C 458.46 453.36 456.58 454.61 454.61 455.71 C 451.76 457.05 449.24 458.95 446.40 460.28 C 444.43 461.37 442.56 462.62 440.60 463.73 C 438.44 464.72 436.44 466.00 434.42 467.25 C 432.09 468.62 429.85 470.14 427.39 471.28 C 425.43 472.38 423.56 473.62 421.61 474.72 C 419.44 475.72 417.44 477.01 415.42 478.25 C 413.44 479.36 411.56 480.62 409.62 481.80 C 408.20 482.39 406.79 483.01 405.39 483.64 C 405.59 483.80 406.00 484.13 406.21 484.30 C 405.75 492.88 406.11 501.48 406.00 510.07 C 406.00 538.28 406.00 566.50 406.00 594.72 C 406.61 594.95 407.83 595.41 408.43 595.64 C 410.08 596.69 411.70 597.79 413.41 598.75 C 415.44 599.98 417.45 601.28 419.62 602.28 C 421.56 603.38 423.43 604.62 425.39 605.72 C 428.24 607.04 430.76 608.96 433.61 610.29 C 435.30 611.21 436.91 612.27 438.58 613.26 C 440.91 614.62 443.15 616.14 445.61 617.27 C 448.19 618.80 450.70 620.46 453.44 621.70 C 454.83 622.54 456.17 623.47 457.55 624.34 C 459.01 625.02 460.48 625.69 461.96 626.34 C 462.04 589.88 461.99 553.42 461.99 516.96 L 462.08 516.41 C 463.60 515.56 465.06 514.62 466.58 513.76 C 468.90 512.37 471.15 510.85 473.62 509.72 C 475.93 508.36 478.16 506.85 480.61 505.72 C 482.93 504.36 485.16 502.85 487.61 501.72 C 489.57 500.61 491.46 499.37 493.42 498.26 C 495.08 497.27 496.70 496.21 498.39 495.28 C 501.51 493.80 504.29 491.71 507.43 490.28 C 509.09 489.28 510.70 488.21 512.39 487.27 C 514.55 486.28 516.55 484.99 518.57 483.75 C 520.90 482.38 523.14 480.86 525.61 479.73 C 527.56 478.62 529.43 477.38 531.39 476.28 C 533.55 475.27 535.55 473.99 537.58 472.75 C 539.90 471.37 542.15 469.86 544.61 468.72 C 546.56 467.61 548.43 466.37 550.40 465.28 C 553.24 463.95 555.76 462.05 558.60 460.72 C 560.57 459.62 562.46 458.37 564.43 457.25 C 566.44 456.00 568.44 454.71 570.62 453.73 C 572.31 452.78 573.92 451.70 575.55 450.66 C 576.07 450.44 577.09 450.01 577.61 449.79 C 579.27 448.79 580.90 447.72 582.57 446.74 C 584.54 445.63 586.42 444.38 588.40 443.28 C 591.24 441.95 593.76 440.04 596.61 438.72 C 598.56 437.62 600.43 436.38 602.39 435.28 C 604.55 434.27 606.55 432.99 608.58 431.75 C 610.54 430.62 612.42 429.38 614.40 428.28 C 617.23 426.95 619.76 425.05 622.60 423.72 C 624.29 422.78 625.91 421.72 627.57 420.74 C 629.54 419.63 631.42 418.38 633.40 417.28 C 635.84 416.14 638.07 414.62 640.39 413.28 C 643.23 411.95 645.76 410.05 648.60 408.72 C 650.57 407.62 652.45 406.37 654.42 405.25 C 656.44 404.00 658.44 402.72 660.61 401.73 C 662.30 400.78 663.91 399.71 665.57 398.72 C 668.31 397.44 670.83 395.78 673.43 394.27 C 675.10 393.27 676.72 392.19 678.37 391.15 C 679.26 390.76 680.16 390.40 681.07 390.06 C 682.26 390.73 683.37 391.57 684.54 392.31 C 685.50 392.76 686.47 393.22 687.45 393.69 C 689.08 394.71 690.69 395.78 692.39 396.73 C 694.55 397.72 696.55 399.00 698.57 400.25 C 700.90 401.62 703.15 403.14 705.61 404.28 C 707.93 405.63 710.15 407.15 712.60 408.28 C 714.57 409.38 716.45 410.62 718.42 411.74 C 720.08 412.72 721.70 413.78 723.39 414.72 C 726.24 416.05 728.76 417.95 731.61 419.29 C 733.57 420.38 735.46 421.63 737.43 422.74 C 739.08 423.72 740.70 424.78 742.39 425.72 C 744.84 426.85 747.06 428.37 749.39 429.73 C 751.85 430.86 754.10 432.37 756.43 433.75 C 758.44 435.00 760.45 436.28 762.62 437.28 C 764.93 438.63 767.15 440.15 769.61 441.28 C 771.56 442.37 773.43 443.62 775.39 444.72 C 777.84 445.85 780.09 447.37 782.42 448.75 C 784.44 449.99 786.44 451.28 788.61 452.28 C 790.56 453.38 792.43 454.62 794.40 455.72 C 797.24 457.05 799.76 458.95 802.60 460.28 C 805.14 461.74 807.61 463.33 810.17 464.77 C 809.78 493.84 810.11 522.92 810.00 551.99 C 810.01 594.09 809.97 636.18 810.02 678.28 C 810.63 678.05 811.84 677.61 812.45 677.38 C 813.81 676.48 815.15 675.52 816.54 674.64 C 817.06 674.43 818.10 674.01 818.62 673.80 C 820.29 672.80 821.90 671.71 823.55 670.68 C 824.51 670.22 825.47 669.76 826.44 669.32 C 827.82 668.46 829.17 667.54 830.58 666.73 C 832.28 665.79 833.90 664.71 835.56 663.69 C 836.51 663.22 837.47 662.77 838.44 662.32 C 840.07 661.29 841.68 660.21 843.38 659.27 C 845.55 658.29 847.55 656.98 849.59 655.75 C 851.29 654.79 852.91 653.70 854.56 652.65 C 855.08 652.44 856.11 652.01 856.63 651.79 C 858.29 650.79 859.91 649.70 861.56 648.65 C 863.02 647.96 864.50 647.29 866.00 646.66 C 866.12 575.32 865.76 503.96 866.18 432.63 C 864.11 430.98 861.89 429.51 859.58 428.24 C 857.55 427.01 855.55 425.72 853.39 424.72 C 851.43 423.62 849.56 422.37 847.61 421.28 C 845.15 420.14 842.90 418.62 840.58 417.26 C 838.91 416.27 837.29 415.21 835.60 414.28 C 832.76 412.95 830.23 411.05 827.39 409.72 C 825.69 408.78 824.07 407.72 822.42 406.74 C 820.08 405.37 817.84 403.85 815.39 402.73 C 813.69 401.78 812.08 400.71 810.43 399.72 C 807.69 398.44 805.16 396.79 802.57 395.25 C 800.91 394.27 799.29 393.21 797.61 392.28 C 794.76 390.95 792.23 389.04 789.39 387.72 C 787.43 386.62 785.56 385.38 783.61 384.28 C 781.15 383.14 778.90 381.62 776.58 380.25 C 774.55 379.00 772.55 377.72 770.39 376.73 C 768.06 375.37 765.84 373.84 763.39 372.72 C 761.69 371.78 760.08 370.71 758.43 369.72 C 755.99 368.57 753.70 367.18 751.43 365.75 C 749.46 364.63 747.57 363.38 745.60 362.28 C 743.15 361.15 740.93 359.63 738.61 358.28 C 735.76 356.95 733.24 355.05 730.40 353.72 C 728.70 352.78 727.08 351.72 725.42 350.74 C 723.45 349.63 721.57 348.38 719.60 347.28 C 717.15 346.15 714.93 344.63 712.61 343.27 C 710.15 342.14 707.90 340.63 705.58 339.25 C 703.56 338.00 701.55 336.72 699.39 335.73 C 697.43 334.62 695.56 333.37 693.61 332.28 C 691.15 331.15 688.93 329.62 686.60 328.28 C 683.78 327.38 681.38 323.61 678.37 326.14 M 679.78 428.85 C 678.48 429.97 677.09 430.96 675.59 431.78 C 673.90 432.72 672.28 433.78 670.61 434.72 C 668.16 435.85 665.93 437.37 663.61 438.73 C 661.16 439.85 658.93 441.36 656.61 442.72 C 654.15 443.86 651.90 445.37 649.57 446.74 C 647.91 447.73 646.29 448.78 644.60 449.72 C 641.76 451.05 639.23 452.95 636.39 454.28 C 634.42 455.38 632.54 456.63 630.57 457.72 C 628.58 458.91 626.66 460.20 624.72 461.45 C 626.37 462.32 627.96 463.32 629.58 464.26 C 632.29 465.56 634.81 467.20 637.39 468.73 C 639.85 469.86 642.09 471.37 644.42 472.75 C 646.44 473.99 648.44 475.27 650.61 476.27 C 653.18 477.80 655.70 479.45 658.43 480.72 C 660.09 481.72 661.72 482.79 663.42 483.74 C 665.08 484.72 666.70 485.78 668.39 486.72 C 670.84 487.85 673.06 489.37 675.39 490.72 C 678.51 492.20 681.29 494.28 684.43 495.72 C 686.09 496.72 687.72 497.78 689.42 498.74 C 691.08 499.72 692.70 500.78 694.40 501.72 C 697.24 503.05 699.76 504.95 702.60 506.28 C 704.56 507.37 706.43 508.62 708.39 509.73 C 710.55 510.72 712.55 512.01 714.59 513.25 C 716.47 514.31 718.27 515.52 720.10 516.68 C 719.86 601.00 720.07 685.33 720.00 769.66 C 718.50 770.28 717.02 770.96 715.56 771.66 C 713.57 772.99 711.57 774.31 709.38 775.27 C 707.68 776.20 706.07 777.29 704.44 778.35 C 703.93 778.56 702.90 779.00 702.38 779.21 C 700.44 780.37 698.56 781.64 696.58 782.73 C 695.16 783.54 693.82 784.46 692.44 785.32 C 691.47 785.76 690.50 786.22 689.54 786.68 C 688.16 787.53 686.82 788.46 685.45 789.32 C 684.48 789.77 683.51 790.22 682.55 790.68 C 681.16 791.52 679.82 792.44 678.42 793.27 C 675.82 794.78 673.31 796.45 670.57 797.71 C 668.90 798.70 667.29 799.79 665.62 800.79 C 665.11 801.00 664.08 801.44 663.56 801.65 C 661.33 803.17 659.03 804.58 656.57 805.71 C 655.17 806.53 653.82 807.44 652.42 808.26 C 650.71 809.19 649.09 810.28 647.44 811.31 C 646.47 811.76 645.51 812.22 644.56 812.68 C 642.32 814.17 640.02 815.58 637.58 816.71 C 635.90 817.71 634.28 818.79 632.58 819.73 C 631.17 820.54 629.82 821.45 628.43 822.29 C 625.68 823.54 623.16 825.18 620.62 826.79 C 620.10 827.01 619.07 827.44 618.56 827.66 C 616.91 828.69 615.29 829.79 613.59 830.74 C 611.31 832.16 609.01 833.57 606.56 834.70 C 605.16 835.53 603.82 836.47 602.45 837.35 C 601.93 837.57 600.90 837.99 600.38 838.21 C 598.45 839.36 596.59 840.63 594.61 841.69 C 593.53 842.32 591.66 842.78 592.00 844.45 C 590.44 843.59 588.95 842.63 587.41 841.75 C 585.09 840.37 582.85 838.85 580.39 837.72 C 578.06 836.37 575.84 834.84 573.39 833.72 C 571.70 832.78 570.08 831.72 568.42 830.74 C 566.72 829.79 565.09 828.71 563.43 827.72 C 560.28 826.28 557.51 824.19 554.39 822.72 C 552.42 821.61 550.54 820.36 548.58 819.26 C 546.91 818.27 545.29 817.21 543.61 816.28 C 541.16 815.15 538.93 813.63 536.62 812.28 C 534.15 811.14 531.90 809.62 529.58 808.25 C 527.30 806.82 525.00 805.42 522.57 804.29 C 520.91 803.28 519.30 802.21 517.61 801.27 C 515.45 800.28 513.44 798.99 511.43 797.75 C 509.09 796.38 506.85 794.85 504.39 793.73 C 502.06 792.36 499.83 790.84 497.39 789.72 C 495.06 788.36 492.83 786.84 490.39 785.72 C 488.70 784.78 487.08 783.72 485.42 782.74 C 483.09 781.38 480.85 779.85 478.39 778.73 C 476.70 777.77 475.08 776.71 473.43 775.72 C 470.28 774.28 467.51 772.19 464.40 770.72 C 462.42 769.61 460.54 768.36 458.58 767.25 C 456.30 765.82 454.00 764.43 451.57 763.28 C 449.56 762.01 447.56 760.71 445.40 759.72 C 443.42 758.61 441.54 757.36 439.58 756.26 C 437.91 755.27 436.29 754.21 434.60 753.28 C 431.76 751.95 429.24 750.04 426.39 748.72 C 424.43 747.62 422.56 746.37 420.61 745.28 C 418.15 744.14 415.91 742.62 413.58 741.26 C 411.91 740.27 410.29 739.21 408.61 738.26 C 407.72 737.79 406.83 737.32 405.95 736.85 C 406.13 758.43 405.83 780.02 406.10 801.60 C 408.33 803.54 410.94 805.01 413.61 806.27 C 416.18 807.80 418.70 809.45 421.43 810.72 C 423.09 811.71 424.71 812.78 426.41 813.74 C 428.08 814.71 429.70 815.78 431.39 816.72 C 433.84 817.84 436.07 819.37 438.39 820.73 C 440.55 821.71 442.56 823.00 444.58 824.25 C 446.90 825.62 449.15 827.14 451.61 828.28 C 453.56 829.37 455.43 830.62 457.39 831.73 C 459.85 832.85 462.09 834.38 464.43 835.74 C 465.82 836.55 467.17 837.45 468.57 838.28 C 471.71 839.71 474.48 841.80 477.60 843.28 C 479.57 844.37 481.45 845.62 483.42 846.74 C 485.08 847.72 486.70 848.78 488.39 849.72 C 491.24 851.04 493.76 852.95 496.61 854.28 C 498.56 855.37 500.43 856.62 502.39 857.73 C 504.55 858.71 506.55 860.00 508.58 861.25 C 510.90 862.62 513.14 864.14 515.61 865.28 C 517.56 866.37 519.43 867.62 521.39 868.72 C 523.55 869.71 525.56 871.00 527.59 872.25 C 529.28 873.21 530.90 874.28 532.57 875.28 C 535.01 876.42 537.31 877.81 539.55 879.31 C 540.51 879.76 541.48 880.22 542.46 880.68 C 543.83 881.53 545.16 882.45 546.55 883.32 C 547.51 883.77 548.48 884.22 549.45 884.69 C 551.10 885.71 552.72 886.79 554.43 887.74 C 555.82 888.55 557.17 889.45 558.57 890.28 C 561.99 891.86 565.01 894.14 568.43 895.72 C 570.43 896.98 572.43 898.28 574.61 899.28 C 576.29 900.21 577.91 901.27 579.58 902.26 C 581.91 903.61 584.15 905.14 586.61 906.28 C 588.40 907.27 590.12 908.40 591.89 909.45 L 591.92 908.19 C 592.79 907.67 593.68 907.17 594.57 906.69 C 595.52 906.22 596.48 905.76 597.44 905.31 C 599.09 904.28 600.71 903.19 602.42 902.26 C 603.82 901.44 605.17 900.53 606.57 899.71 C 609.02 898.58 611.32 897.18 613.56 895.68 C 614.51 895.22 615.47 894.76 616.44 894.32 C 618.43 893.00 620.43 891.69 622.61 890.72 C 624.58 889.61 626.45 888.35 628.43 887.27 C 629.82 886.44 631.16 885.52 632.56 884.69 C 633.51 884.22 634.47 883.76 635.44 883.32 C 637.67 881.81 639.97 880.41 642.43 879.29 C 644.08 878.28 645.69 877.21 647.38 876.27 C 649.55 875.29 651.55 873.98 653.59 872.74 C 656.17 871.20 658.68 869.54 661.43 868.30 C 662.82 867.45 664.16 866.53 665.55 865.68 C 666.51 865.22 667.47 864.76 668.44 864.32 C 670.09 863.28 671.71 862.19 673.42 861.26 C 674.82 860.44 676.17 859.53 677.57 858.71 C 680.30 857.46 682.80 855.80 685.39 854.28 C 687.84 853.16 690.06 851.62 692.38 850.28 C 694.85 849.15 697.08 847.60 699.43 846.27 C 700.82 845.44 702.16 844.52 703.55 843.69 C 704.51 843.22 705.47 842.77 706.44 842.32 C 708.07 841.29 709.68 840.20 711.38 839.27 C 713.55 838.29 715.55 836.98 717.59 835.74 C 719.29 834.79 720.90 833.70 722.56 832.69 C 723.51 832.22 724.47 831.76 725.44 831.32 C 727.43 830.00 729.43 828.69 731.62 827.72 C 733.30 826.78 734.91 825.71 736.59 824.74 C 739.17 823.21 741.68 821.54 744.43 820.30 C 745.82 819.45 747.16 818.53 748.55 817.68 C 749.51 817.22 750.47 816.76 751.44 816.31 C 753.09 815.28 754.71 814.19 756.43 813.27 C 757.83 812.44 759.17 811.51 760.56 810.65 C 761.07 810.44 762.10 810.01 762.62 809.79 C 764.91 808.37 767.14 806.82 769.61 805.72 C 772.09 803.90 776.86 802.90 776.02 798.96 C 775.97 709.99 776.01 621.01 776.00 532.04 C 775.86 516.15 776.29 500.23 775.78 484.35 C 775.98 484.17 776.39 483.80 776.60 483.62 C 775.18 483.00 773.79 482.39 772.38 481.80 C 770.70 480.80 769.09 479.72 767.43 478.73 C 765.45 477.63 763.57 476.38 761.60 475.28 C 758.76 473.95 756.23 472.05 753.40 470.72 C 751.70 469.78 750.08 468.72 748.42 467.74 C 746.09 466.37 743.84 464.86 741.39 463.72 C 739.43 462.62 737.56 461.37 735.60 460.28 C 732.76 458.95 730.23 457.05 727.39 455.72 C 725.70 454.78 724.08 453.72 722.42 452.74 C 720.72 451.79 719.09 450.72 717.43 449.72 C 714.70 448.45 712.19 446.80 709.61 445.28 C 706.76 443.95 704.24 442.05 701.40 440.72 C 699.70 439.78 698.08 438.72 696.42 437.74 C 694.45 436.63 692.57 435.38 690.60 434.28 C 688.12 433.16 685.87 431.63 683.61 430.13 C 682.33 429.68 681.06 429.23 679.78 428.85 M 589.77 480.80 C 588.26 482.36 586.37 483.43 584.39 484.27 C 582.42 485.37 580.54 486.62 578.58 487.75 C 576.55 488.99 574.55 490.27 572.39 491.28 C 570.07 492.63 567.84 494.15 565.39 495.28 C 563.42 496.38 561.54 497.62 559.58 498.74 C 557.91 499.72 556.29 500.78 554.61 501.72 C 552.16 502.85 549.93 504.37 547.61 505.73 C 545.45 506.72 543.44 508.00 541.43 509.25 C 539.46 510.36 537.57 511.61 535.61 512.72 C 533.16 513.85 530.93 515.36 528.61 516.72 C 526.45 517.72 524.44 519.00 522.42 520.25 C 520.10 521.62 517.85 523.13 515.39 524.27 C 513.07 525.63 510.84 527.15 508.39 528.28 C 506.42 529.38 504.54 530.62 502.58 531.74 C 500.90 532.73 499.26 533.79 497.56 534.74 C 496.67 535.24 495.79 535.77 494.94 536.32 C 495.11 572.51 494.90 608.70 495.04 644.90 C 494.91 646.29 496.67 646.64 497.57 647.33 C 499.57 648.36 501.46 649.62 503.42 650.74 C 505.69 652.17 507.99 653.57 510.43 654.71 C 512.08 655.71 513.69 656.78 515.39 657.73 C 517.85 658.85 520.09 660.38 522.42 661.74 C 524.08 662.72 525.70 663.78 527.40 664.72 C 530.24 666.04 532.76 667.95 535.61 669.28 C 537.93 670.62 540.15 672.15 542.61 673.28 C 544.57 674.38 546.46 675.62 548.42 676.75 C 550.44 677.99 552.44 679.28 554.61 680.27 C 556.93 681.62 559.15 683.15 561.61 684.28 C 563.29 685.21 564.91 686.27 566.58 687.26 C 569.16 688.79 571.69 690.44 574.43 691.71 C 575.82 692.54 577.17 693.45 578.57 694.29 C 581.31 695.54 583.83 697.18 586.38 698.78 C 588.24 699.63 590.09 700.52 591.98 701.35 L 591.99 700.34 C 593.48 699.70 594.96 699.02 596.45 698.35 C 597.82 697.47 599.16 696.53 600.57 695.70 C 603.02 694.58 605.31 693.17 607.58 691.71 C 610.01 690.57 612.30 689.16 614.59 687.74 C 616.28 686.79 617.90 685.71 619.58 684.71 C 623.00 683.15 626.00 680.84 629.42 679.29 C 630.82 678.46 632.17 677.54 633.58 676.74 C 635.28 675.79 636.90 674.71 638.56 673.68 C 639.51 673.22 640.48 672.76 641.45 672.32 C 643.08 671.29 644.68 670.21 646.37 669.28 C 648.85 668.17 651.08 666.63 653.38 665.21 C 653.90 664.99 654.92 664.56 655.44 664.34 C 657.08 663.29 658.70 662.20 660.41 661.25 C 662.44 660.01 664.44 658.71 666.62 657.72 C 668.94 656.37 671.15 654.83 673.61 653.72 C 675.57 652.62 677.45 651.36 679.42 650.26 C 680.82 649.44 682.17 648.53 683.58 647.74 C 684.73 646.91 686.96 646.65 686.95 644.88 C 687.11 608.69 686.88 572.49 687.06 536.30 C 686.18 535.76 685.30 535.23 684.42 534.73 C 682.44 533.62 680.54 532.38 678.58 531.26 C 676.56 530.00 674.55 528.72 672.39 527.73 C 670.43 526.62 668.56 525.37 666.61 524.27 C 664.44 523.27 662.44 521.99 660.43 520.75 C 658.09 519.37 655.84 517.86 653.39 516.72 C 651.07 515.37 648.84 513.85 646.40 512.72 C 644.42 511.61 642.54 510.37 640.57 509.26 C 639.17 508.44 637.82 507.54 636.43 506.72 C 633.28 505.28 630.51 503.19 627.39 501.72 C 625.69 500.78 624.08 499.71 622.43 498.72 C 619.69 497.44 617.16 495.80 614.58 494.25 C 612.55 493.00 610.55 491.72 608.39 490.73 C 606.43 489.62 604.56 488.37 602.61 487.28 C 599.77 485.94 597.20 484.12 594.46 482.62 C 592.92 481.94 591.36 481.30 589.77 480.80 Z" />
</g>
<g id="#005aa5ff">
<path fill="#005aa5" opacity="1.00" d=" M 263.01 401.65 C 269.11 405.83 275.80 409.05 281.93 413.19 C 282.10 497.32 281.95 581.44 282.00 665.57 C 285.89 667.25 289.45 669.56 293.08 671.75 C 319.19 686.75 345.26 701.89 371.34 716.93 C 372.84 719.80 371.67 723.68 372.01 726.94 C 371.95 758.24 372.09 789.54 371.94 820.83 C 378.23 825.07 385.06 828.43 391.57 832.32 C 457.56 870.43 523.53 908.60 589.52 946.71 C 589.95 946.84 590.80 947.10 591.23 947.22 C 592.87 954.34 591.66 961.72 591.98 968.96 C 591.39 968.92 590.21 968.85 589.62 968.82 C 588.32 967.84 586.98 966.96 585.59 966.17 C 582.74 964.86 580.22 962.98 577.39 961.65 C 575.70 960.70 574.08 959.65 572.42 958.68 C 570.72 957.71 569.09 956.63 567.44 955.60 C 566.93 955.38 565.90 954.94 565.38 954.72 C 563.10 953.28 560.85 951.78 558.40 950.66 C 556.43 949.54 554.54 948.29 552.57 947.19 C 550.43 946.18 548.43 944.91 546.43 943.68 C 544.46 942.54 542.56 941.29 540.58 940.20 C 538.13 939.05 535.90 937.54 533.58 936.19 C 531.43 935.18 529.44 933.92 527.44 932.68 C 525.46 931.54 523.56 930.30 521.57 929.20 C 519.13 928.05 516.90 926.54 514.58 925.19 C 512.43 924.18 510.44 922.92 508.43 921.68 C 506.45 920.54 504.55 919.29 502.57 918.20 C 500.43 917.18 498.44 915.91 496.44 914.67 C 493.31 913.20 490.51 911.14 487.40 909.65 C 485.71 908.70 484.09 907.65 482.44 906.68 C 480.46 905.54 478.55 904.29 476.57 903.20 C 473.75 901.84 471.21 899.99 468.40 898.65 C 466.41 897.53 464.51 896.28 462.53 895.16 C 460.88 894.17 459.26 893.12 457.57 892.20 C 455.43 891.19 453.44 889.91 451.45 888.66 C 449.01 887.50 446.70 886.11 444.44 884.66 C 442.01 883.49 439.71 882.10 437.42 880.69 C 435.72 879.71 434.09 878.63 432.45 877.60 C 431.93 877.38 430.90 876.94 430.38 876.72 C 427.83 875.09 425.27 873.47 422.52 872.19 C 420.85 871.17 419.22 870.11 417.53 869.16 C 415.87 868.17 414.26 867.12 412.57 866.20 C 409.75 864.84 407.22 862.99 404.40 861.65 C 402.41 860.53 400.50 859.28 398.53 858.16 C 396.53 856.90 394.53 855.65 392.39 854.66 C 390.71 853.70 389.09 852.65 387.44 851.66 C 384.30 850.20 381.50 848.14 378.39 846.65 C 376.41 845.53 374.51 844.28 372.53 843.16 C 370.87 842.17 369.26 841.12 367.57 840.20 C 365.13 839.05 362.89 837.53 360.57 836.18 C 357.96 834.93 355.37 833.52 353.20 831.58 C 353.00 797.71 353.18 763.83 353.12 729.96 C 353.60 727.71 351.00 727.09 349.55 726.15 C 347.88 725.17 346.26 724.13 344.57 723.20 C 341.75 721.84 339.22 719.98 336.39 718.66 C 334.69 717.71 333.08 716.63 331.45 715.60 C 330.93 715.38 329.90 714.94 329.39 714.72 C 327.72 713.72 326.10 712.65 324.44 711.67 C 322.46 710.55 320.56 709.30 318.57 708.20 C 315.75 706.84 313.22 704.98 310.39 703.65 C 308.71 702.71 307.09 701.65 305.44 700.66 C 303.00 699.50 300.70 698.11 298.43 696.68 C 296.45 695.54 294.55 694.29 292.56 693.20 C 289.75 691.84 287.21 689.98 284.39 688.64 C 282.70 687.70 281.09 686.65 279.43 685.68 C 277.45 684.55 275.55 683.29 273.56 682.19 C 271.41 681.20 269.42 679.91 267.46 678.60 C 266.00 677.91 264.54 677.24 263.06 676.61 C 263.19 621.76 263.08 566.90 263.12 512.05 C 263.05 475.25 263.26 438.45 263.01 401.65 Z" />
<path fill="#005aa5" opacity="1.00" d=" M 315.81 432.65 C 334.55 443.20 353.00 454.28 371.78 464.74 C 372.28 481.16 371.86 497.60 372.00 514.02 C 372.00 547.25 372.00 580.48 372.00 613.72 C 372.61 613.95 373.83 614.41 374.44 614.64 C 375.82 615.50 377.16 616.43 378.56 617.27 C 380.27 618.20 381.90 619.27 383.58 620.28 C 386.99 621.86 390.01 624.14 393.43 625.72 C 395.09 626.71 396.72 627.79 398.43 628.75 C 400.09 629.72 401.70 630.78 403.39 631.72 C 405.84 632.84 408.07 634.37 410.39 635.73 C 412.84 636.84 415.07 638.37 417.39 639.73 C 419.85 640.85 422.09 642.37 424.42 643.75 C 426.69 645.17 428.99 646.57 431.43 647.71 C 433.08 648.71 434.70 649.78 436.39 650.73 C 438.84 651.84 441.06 653.37 443.38 654.72 C 445.55 655.71 447.55 657.00 449.58 658.25 C 451.27 659.20 452.90 660.28 454.58 661.28 C 457.30 662.54 459.81 664.19 462.39 665.73 C 464.55 666.71 466.55 668.00 468.58 669.25 C 470.27 670.21 471.90 671.28 473.57 672.28 C 476.30 673.54 478.81 675.19 481.39 676.72 C 483.55 677.71 485.56 679.00 487.57 680.28 C 490.30 681.56 492.83 683.20 495.43 684.74 C 496.82 685.55 498.17 686.45 499.57 687.28 C 502.99 688.86 506.01 691.14 509.42 692.72 C 511.09 693.71 512.72 694.78 514.42 695.74 C 516.08 696.72 517.70 697.78 519.39 698.72 C 521.56 699.71 523.56 701.01 525.57 702.28 C 528.29 703.54 530.81 705.19 533.39 706.73 C 535.55 707.71 537.55 709.00 539.57 710.25 C 541.90 711.61 544.14 713.14 546.61 714.27 C 548.30 715.21 549.91 716.28 551.57 717.28 C 554.00 718.42 556.30 719.82 558.58 721.26 C 560.54 722.37 562.42 723.61 564.40 724.72 C 567.51 726.19 570.29 728.28 573.43 729.72 C 575.08 730.71 576.70 731.78 578.39 732.73 C 580.55 733.71 582.55 735.01 584.59 736.25 C 586.29 737.20 587.92 738.30 589.57 739.37 C 590.17 739.59 591.39 740.05 592.00 740.28 C 592.00 761.61 592.01 782.95 591.99 804.28 L 591.99 805.30 C 590.77 804.80 589.57 804.29 588.37 803.81 C 586.71 802.79 585.09 801.72 583.43 800.73 C 580.83 799.20 578.30 797.55 575.57 796.28 C 573.91 795.28 572.30 794.21 570.61 793.27 C 568.15 792.14 565.91 790.62 563.59 789.26 C 561.56 788.00 559.55 786.72 557.39 785.72 C 555.43 784.62 553.56 783.37 551.61 782.28 C 549.43 781.28 547.43 779.98 545.43 778.72 C 542.69 777.44 540.16 775.79 537.58 774.26 C 535.91 773.27 534.29 772.21 532.61 771.28 C 530.14 770.15 527.90 768.63 525.62 767.21 C 525.10 766.99 524.07 766.56 523.55 766.34 C 522.17 765.47 520.83 764.55 519.44 763.73 C 517.46 762.63 515.58 761.38 513.61 760.28 C 510.49 758.80 507.71 756.71 504.57 755.28 C 502.91 754.28 501.30 753.21 499.61 752.27 C 497.15 751.14 494.90 749.62 492.58 748.25 C 490.55 747.00 488.55 745.72 486.39 744.73 C 484.06 743.37 481.84 741.84 479.39 740.72 C 477.69 739.78 476.08 738.71 474.43 737.71 C 471.99 736.57 469.69 735.17 467.42 733.75 C 465.72 732.78 464.09 731.71 462.43 730.72 C 459.97 729.58 457.67 728.18 455.44 726.66 C 454.93 726.44 453.90 726.01 453.39 725.79 C 451.71 724.79 450.09 723.72 448.42 722.74 C 446.09 721.38 443.85 719.85 441.39 718.72 C 439.07 717.36 436.84 715.84 434.39 714.72 C 432.07 713.37 429.84 711.84 427.39 710.72 C 425.42 709.61 423.54 708.36 421.57 707.26 C 420.17 706.44 418.82 705.53 417.43 704.72 C 414.28 703.28 411.51 701.19 408.39 699.72 C 406.70 698.78 405.08 697.72 403.42 696.74 C 401.09 695.37 398.84 693.85 396.39 692.72 C 394.06 691.37 391.84 689.84 389.39 688.73 C 387.06 687.37 384.84 685.84 382.39 684.72 C 380.70 683.78 379.08 682.72 377.42 681.74 C 375.45 680.63 373.57 679.38 371.61 678.28 C 369.44 677.28 367.43 675.98 365.42 674.72 C 362.29 673.28 359.51 671.19 356.39 669.72 C 354.42 668.61 352.54 667.36 350.57 666.26 C 348.91 665.27 347.29 664.21 345.61 663.28 C 342.76 661.95 340.24 660.04 337.39 658.72 C 335.42 657.61 333.54 656.37 331.58 655.26 C 329.91 654.27 328.30 653.21 326.61 652.28 C 324.42 651.29 322.42 649.99 320.44 648.66 C 318.97 647.97 317.49 647.29 316.00 646.66 C 316.00 591.76 316.00 536.86 316.00 481.96 C 315.88 465.53 316.25 449.08 315.81 432.65 Z" />
<path fill="#005aa5" opacity="1.00" d=" M 406.21 484.30 C 407.05 484.96 407.93 485.59 408.84 486.19 C 426.53 496.49 444.30 506.65 461.99 516.96 C 461.99 553.42 462.04 589.88 461.96 626.34 C 460.48 625.69 459.01 625.02 457.55 624.34 C 456.17 623.47 454.83 622.54 453.44 621.70 C 450.70 620.46 448.19 618.80 445.61 617.27 C 443.15 616.14 440.91 614.62 438.58 613.26 C 436.91 612.27 435.30 611.21 433.61 610.29 C 430.76 608.96 428.24 607.04 425.39 605.72 C 423.43 604.62 421.56 603.38 419.62 602.28 C 417.45 601.28 415.44 599.98 413.41 598.75 C 411.70 597.79 410.08 596.69 408.43 595.64 C 407.83 595.41 406.61 594.95 406.00 594.72 C 406.00 566.50 406.00 538.28 406.00 510.07 C 406.11 501.48 405.75 492.88 406.21 484.30 Z" />
<path fill="#005aa5" opacity="1.00" d=" M 494.94 536.32 C 498.19 537.93 501.40 539.64 504.50 541.54 C 521.62 551.45 538.77 561.31 555.89 571.22 C 567.91 577.87 579.39 585.53 591.84 591.35 C 592.20 627.68 591.92 664.01 591.99 700.34 L 591.98 701.35 C 590.09 700.52 588.24 699.63 586.38 698.78 C 583.83 697.18 581.31 695.54 578.57 694.29 C 577.17 693.45 575.82 692.54 574.43 691.71 C 571.69 690.44 569.16 688.79 566.58 687.26 C 564.91 686.27 563.29 685.21 561.61 684.28 C 559.15 683.15 556.93 681.62 554.61 680.27 C 552.44 679.28 550.44 677.99 548.42 676.75 C 546.46 675.62 544.57 674.38 542.61 673.28 C 540.15 672.15 537.93 670.62 535.61 669.28 C 532.76 667.95 530.24 666.04 527.40 664.72 C 525.70 663.78 524.08 662.72 522.42 661.74 C 520.09 660.38 517.85 658.85 515.39 657.73 C 513.69 656.78 512.08 655.71 510.43 654.71 C 507.99 653.57 505.69 652.17 503.42 650.74 C 501.46 649.62 499.57 648.36 497.57 647.33 C 496.67 646.64 494.91 646.29 495.04 644.90 C 494.90 608.70 495.11 572.51 494.94 536.32 Z" />
<path fill="#005aa5" opacity="1.00" d=" M 405.95 736.85 C 406.83 737.32 407.72 737.79 408.61 738.26 C 410.29 739.21 411.91 740.27 413.58 741.26 C 415.91 742.62 418.15 744.14 420.61 745.28 C 422.56 746.37 424.43 747.62 426.39 748.72 C 429.24 750.04 431.76 751.95 434.60 753.28 C 436.29 754.21 437.91 755.27 439.58 756.26 C 441.54 757.36 443.42 758.61 445.40 759.72 C 447.56 760.71 449.56 762.01 451.57 763.28 C 454.00 764.43 456.30 765.82 458.58 767.25 C 460.54 768.36 462.42 769.61 464.40 770.72 C 467.51 772.19 470.28 774.28 473.43 775.72 C 475.08 776.71 476.70 777.77 478.39 778.73 C 480.85 779.85 483.09 781.38 485.42 782.74 C 487.08 783.72 488.70 784.78 490.39 785.72 C 492.83 786.84 495.06 788.36 497.39 789.72 C 499.83 790.84 502.06 792.36 504.39 793.73 C 506.85 794.85 509.09 796.38 511.43 797.75 C 513.44 798.99 515.45 800.28 517.61 801.27 C 519.30 802.21 520.91 803.28 522.57 804.29 C 525.00 805.42 527.30 806.82 529.58 808.25 C 531.90 809.62 534.15 811.14 536.62 812.28 C 538.93 813.63 541.16 815.15 543.61 816.28 C 545.29 817.21 546.91 818.27 548.58 819.26 C 550.54 820.36 552.42 821.61 554.39 822.72 C 557.51 824.19 560.28 826.28 563.43 827.72 C 565.09 828.71 566.72 829.79 568.42 830.74 C 570.08 831.72 571.70 832.78 573.39 833.72 C 575.84 834.84 578.06 836.37 580.39 837.72 C 582.85 838.85 585.09 840.37 587.41 841.75 C 588.95 842.63 590.44 843.59 592.00 844.45 C 591.93 865.69 592.12 886.94 591.92 908.19 L 591.89 909.45 C 590.12 908.40 588.40 907.27 586.61 906.28 C 584.15 905.14 581.91 903.61 579.58 902.26 C 577.91 901.27 576.29 900.21 574.61 899.28 C 572.43 898.28 570.43 896.98 568.43 895.72 C 565.01 894.14 561.99 891.86 558.57 890.28 C 557.17 889.45 555.82 888.55 554.43 887.74 C 552.72 886.79 551.10 885.71 549.45 884.69 C 548.48 884.22 547.51 883.77 546.55 883.32 C 545.16 882.45 543.83 881.53 542.46 880.68 C 541.48 880.22 540.51 879.76 539.55 879.31 C 537.31 877.81 535.01 876.42 532.57 875.28 C 530.90 874.28 529.28 873.21 527.59 872.25 C 525.56 871.00 523.55 869.71 521.39 868.72 C 519.43 867.62 517.56 866.37 515.61 865.28 C 513.14 864.14 510.90 862.62 508.58 861.25 C 506.55 860.00 504.55 858.71 502.39 857.73 C 500.43 856.62 498.56 855.37 496.61 854.28 C 493.76 852.95 491.24 851.04 488.39 849.72 C 486.70 848.78 485.08 847.72 483.42 846.74 C 481.45 845.62 479.57 844.37 477.60 843.28 C 474.48 841.80 471.71 839.71 468.57 838.28 C 467.17 837.45 465.82 836.55 464.43 835.74 C 462.09 834.38 459.85 832.85 457.39 831.73 C 455.43 830.62 453.56 829.37 451.61 828.28 C 449.15 827.14 446.90 825.62 444.58 824.25 C 442.56 823.00 440.55 821.71 438.39 820.73 C 436.07 819.37 433.84 817.84 431.39 816.72 C 429.70 815.78 428.08 814.71 426.41 813.74 C 424.71 812.78 423.09 811.71 421.43 810.72 C 418.70 809.45 416.18 807.80 413.61 806.27 C 410.94 805.01 408.33 803.54 406.10 801.60 C 405.83 780.02 406.13 758.43 405.95 736.85 Z" />
</g>
<g id="#322d5fff">
<path fill="#322d5f" opacity="1.00" d=" M 899.17 412.99 C 905.91 409.76 912.31 405.86 918.72 402.02 C 918.76 493.53 918.58 585.05 918.81 676.56 C 918.24 676.77 917.10 677.17 916.52 677.38 C 914.82 678.30 913.17 679.30 911.59 680.40 C 909.18 681.59 906.80 682.83 904.58 684.34 C 902.86 685.27 901.18 686.27 899.60 687.42 C 898.23 688.10 896.86 688.76 895.49 689.43 C 894.52 690.07 893.56 690.74 892.62 691.43 C 890.18 692.57 887.80 693.83 885.57 695.34 C 883.86 696.28 882.19 697.29 880.59 698.40 C 878.17 699.59 875.77 700.81 873.59 702.40 C 871.17 703.59 868.75 704.80 866.59 706.43 C 865.22 707.10 863.85 707.76 862.49 708.43 C 861.51 709.06 860.55 709.71 859.61 710.38 C 857.87 711.28 856.18 712.27 854.59 713.40 C 852.18 714.59 849.77 715.81 847.59 717.40 C 845.18 718.59 842.75 719.79 840.60 721.42 C 839.23 722.10 837.86 722.76 836.50 723.43 C 835.52 724.06 834.55 724.72 833.61 725.40 C 831.93 726.28 830.28 727.19 828.65 728.13 C 828.79 762.08 828.66 796.03 828.72 829.99 C 829.16 832.48 826.10 833.07 824.65 834.44 C 821.50 835.84 818.59 837.69 815.64 839.45 C 813.88 840.29 812.19 841.25 810.58 842.33 C 808.86 843.28 807.18 844.28 805.58 845.40 C 803.17 846.60 800.75 847.80 798.60 849.42 C 797.23 850.09 795.87 850.75 794.51 851.42 C 793.53 852.06 792.57 852.73 791.63 853.42 C 789.19 854.57 786.80 855.82 784.58 857.34 C 782.87 858.28 781.19 859.28 779.59 860.40 C 777.17 861.59 774.77 862.82 772.58 864.40 C 770.18 865.59 767.79 866.83 765.58 868.34 C 763.86 869.28 762.19 870.28 760.59 871.40 C 758.18 872.59 755.77 873.81 753.59 875.39 C 751.19 876.59 748.80 877.83 746.58 879.34 C 744.87 880.27 743.20 881.27 741.61 882.39 C 741.10 882.65 740.07 883.15 739.55 883.40 C 737.83 884.29 736.15 885.28 734.59 886.43 C 733.22 887.11 731.84 887.77 730.47 888.43 C 729.51 889.08 728.57 889.75 727.65 890.46 C 725.85 891.32 724.06 892.19 722.25 893.01 C 721.87 893.37 721.11 894.07 720.73 894.42 C 718.92 895.25 717.18 896.22 715.58 897.40 C 713.17 898.60 710.76 899.81 708.59 901.40 C 706.19 902.59 703.81 903.83 701.59 905.33 C 699.87 906.27 698.19 907.27 696.59 908.40 C 694.18 909.59 691.76 910.80 689.60 912.41 C 687.87 913.31 686.13 914.19 684.40 915.09 C 683.17 915.92 681.92 916.72 680.65 917.50 C 678.84 918.28 677.12 919.23 675.58 920.46 C 674.46 920.97 673.35 921.48 672.23 921.98 C 671.86 922.36 671.13 923.13 670.76 923.51 C 669.33 924.12 667.90 924.75 666.49 925.39 C 665.52 926.05 664.56 926.73 663.63 927.43 C 661.19 928.57 658.81 929.82 656.58 931.33 C 654.87 932.28 653.19 933.28 651.58 934.40 C 649.17 935.59 646.75 936.81 644.59 938.43 C 643.23 939.10 641.86 939.77 640.49 940.44 C 639.52 941.06 638.57 941.71 637.63 942.38 C 635.50 943.47 633.48 944.72 631.50 946.05 C 630.48 946.50 629.47 946.96 628.47 947.43 C 627.51 948.07 626.56 948.74 625.63 949.43 C 623.18 950.56 620.76 951.79 618.60 953.43 C 617.24 954.09 615.87 954.76 614.51 955.43 C 613.53 956.05 612.56 956.70 611.61 957.37 C 609.87 958.27 608.18 959.27 606.58 960.41 C 604.17 961.60 601.75 962.80 599.59 964.43 C 598.23 965.10 596.87 965.76 595.51 966.41 C 594.30 967.22 593.14 968.08 591.98 968.96 C 591.66 961.72 592.87 954.34 591.23 947.22 C 591.52 947.15 592.09 946.99 592.37 946.91 C 594.16 945.92 595.86 944.77 597.58 943.67 C 598.52 943.21 599.46 942.76 600.41 942.32 C 602.08 941.28 603.74 940.22 605.44 939.25 C 606.81 938.42 608.14 937.54 609.51 936.71 C 610.48 936.23 611.47 935.77 612.47 935.32 C 613.80 934.46 615.12 933.56 616.46 932.71 C 617.45 932.24 618.45 931.77 619.45 931.31 C 620.82 930.45 622.18 929.57 623.58 928.74 C 625.26 927.76 626.89 926.71 628.55 925.69 C 629.52 925.22 630.49 924.77 631.47 924.32 C 632.84 923.43 634.18 922.52 635.55 921.64 C 636.08 921.42 637.12 920.98 637.65 920.77 C 639.58 919.58 641.50 918.35 643.48 917.23 C 644.83 916.41 646.15 915.54 647.49 914.71 C 648.46 914.25 649.44 913.79 650.42 913.35 C 651.79 912.46 653.14 911.55 654.52 910.69 C 655.48 910.23 656.44 909.77 657.42 909.33 C 658.82 908.45 660.21 907.55 661.63 906.71 C 663.28 905.75 664.89 904.72 666.51 903.71 C 667.48 903.24 668.46 902.78 669.44 902.33 C 670.81 901.45 672.17 900.53 673.55 899.66 C 674.51 899.21 675.47 898.77 676.45 898.34 C 677.81 897.45 679.16 896.54 680.53 895.68 C 681.49 895.21 682.46 894.76 683.44 894.32 C 684.83 893.44 686.22 892.54 687.64 891.71 C 689.30 890.74 690.91 889.70 692.55 888.70 C 693.51 888.23 694.48 887.77 695.46 887.32 C 696.83 886.44 698.19 885.52 699.58 884.66 C 700.54 884.19 701.51 883.73 702.48 883.29 C 704.12 882.26 705.74 881.22 707.42 880.26 C 708.82 879.41 710.19 878.52 711.58 877.67 C 712.55 877.20 713.52 876.75 714.50 876.30 C 715.83 875.44 717.15 874.54 718.50 873.69 C 719.46 873.23 720.43 872.78 721.41 872.33 C 722.80 871.46 724.18 870.57 725.59 869.74 C 727.28 868.75 728.92 867.69 730.57 866.66 C 731.09 866.44 732.14 866.00 732.66 865.78 C 734.29 864.76 735.90 863.71 737.54 862.69 C 738.49 862.22 739.45 861.77 740.43 861.32 C 742.08 860.28 743.72 859.23 745.41 858.25 C 746.81 857.42 748.19 856.55 749.60 855.73 C 752.01 854.52 754.32 853.14 756.59 851.68 C 757.54 851.22 758.50 850.76 759.47 850.32 C 760.83 849.44 762.18 848.53 763.57 847.66 C 764.53 847.20 765.50 846.74 766.49 846.29 C 767.86 845.43 769.21 844.55 770.61 843.72 C 772.27 842.75 773.90 841.71 775.54 840.70 C 776.51 840.23 777.48 839.77 778.47 839.32 C 779.82 838.45 781.16 837.54 782.52 836.69 C 783.49 836.21 784.47 835.75 785.46 835.30 C 787.11 834.26 788.75 833.21 790.45 832.25 C 791.82 831.41 793.16 830.53 794.53 829.69 C 795.49 829.23 796.46 828.78 797.44 828.34 C 798.80 827.45 800.15 826.54 801.52 825.67 C 802.49 825.22 803.47 824.79 804.47 824.36 C 806.63 822.59 810.77 821.61 810.02 818.08 C 809.98 785.04 810.00 751.99 810.01 718.95 C 809.73 716.01 813.47 715.55 815.40 714.31 C 816.80 713.44 818.18 712.53 819.58 711.67 C 820.55 711.20 821.52 710.73 822.50 710.28 C 824.12 709.26 825.74 708.22 827.41 707.27 C 828.79 706.43 830.15 705.54 831.53 704.69 C 832.50 704.23 833.48 703.77 834.47 703.32 C 835.82 702.44 837.16 701.54 838.53 700.68 C 839.50 700.21 840.48 699.76 841.46 699.31 C 842.82 698.45 844.18 697.57 845.57 696.74 C 847.26 695.76 848.91 694.71 850.58 693.68 C 851.54 693.21 852.51 692.75 853.49 692.31 C 854.84 691.43 856.18 690.53 857.55 689.67 C 858.50 689.21 859.46 688.76 860.44 688.32 C 861.79 687.47 863.13 686.59 864.52 685.77 C 866.23 684.78 867.90 683.71 869.59 682.68 C 870.54 682.21 871.51 681.76 872.49 681.31 C 873.83 680.44 875.16 679.54 876.52 678.68 C 877.49 678.22 878.46 677.76 879.44 677.31 C 881.09 676.27 882.73 675.23 884.43 674.26 C 885.81 673.41 887.17 672.53 888.57 671.69 C 889.53 671.21 890.51 670.73 891.49 670.27 C 892.85 669.44 894.20 668.58 895.60 667.81 C 896.96 666.82 899.42 666.19 898.99 664.04 C 899.12 580.36 898.77 496.67 899.17 412.99 Z" />
<path fill="#322d5f" opacity="1.00" d=" M 810.17 464.77 C 828.98 454.31 847.44 443.22 866.18 432.63 C 865.76 503.96 866.12 575.32 866.00 646.66 C 864.50 647.29 863.02 647.96 861.56 648.65 C 859.91 649.70 858.29 650.79 856.63 651.79 C 856.11 652.01 855.08 652.44 854.56 652.65 C 852.91 653.70 851.29 654.79 849.59 655.75 C 847.55 656.98 845.55 658.29 843.38 659.27 C 841.68 660.21 840.07 661.29 838.44 662.32 C 837.47 662.77 836.51 663.22 835.56 663.69 C 833.90 664.71 832.28 665.79 830.58 666.73 C 829.17 667.54 827.82 668.46 826.44 669.32 C 825.47 669.76 824.51 670.22 823.55 670.68 C 821.90 671.71 820.29 672.80 818.62 673.80 C 818.10 674.01 817.06 674.43 816.54 674.64 C 815.15 675.52 813.81 676.48 812.45 677.38 C 811.84 677.61 810.63 678.05 810.02 678.28 C 809.97 636.18 810.01 594.09 810.00 551.99 C 810.11 522.92 809.78 493.84 810.17 464.77 Z" />
<path fill="#322d5f" opacity="1.00" d=" M 742.13 504.20 C 753.25 497.44 764.89 491.47 775.78 484.35 C 776.29 500.23 775.86 516.15 776.00 532.04 C 776.01 621.01 775.97 709.99 776.02 798.96 C 776.86 802.90 772.09 803.90 769.61 805.72 C 767.14 806.82 764.91 808.37 762.62 809.79 C 762.10 810.01 761.07 810.44 760.56 810.65 C 759.17 811.51 757.83 812.44 756.43 813.27 C 754.71 814.19 753.09 815.28 751.44 816.31 C 750.47 816.76 749.51 817.22 748.55 817.68 C 747.16 818.53 745.82 819.45 744.43 820.30 C 741.68 821.54 739.17 823.21 736.59 824.74 C 734.91 825.71 733.30 826.78 731.62 827.72 C 729.43 828.69 727.43 830.00 725.44 831.32 C 724.47 831.76 723.51 832.22 722.56 832.69 C 720.90 833.70 719.29 834.79 717.59 835.74 C 715.55 836.98 713.55 838.29 711.38 839.27 C 709.68 840.20 708.07 841.29 706.44 842.32 C 705.47 842.77 704.51 843.22 703.55 843.69 C 702.16 844.52 700.82 845.44 699.43 846.27 C 697.08 847.60 694.85 849.15 692.38 850.28 C 690.06 851.62 687.84 853.16 685.39 854.28 C 682.80 855.80 680.30 857.46 677.57 858.71 C 676.17 859.53 674.82 860.44 673.42 861.26 C 671.71 862.19 670.09 863.28 668.44 864.32 C 667.47 864.76 666.51 865.22 665.55 865.68 C 664.16 866.53 662.82 867.45 661.43 868.30 C 658.68 869.54 656.17 871.20 653.59 872.74 C 651.55 873.98 649.55 875.29 647.38 876.27 C 645.69 877.21 644.08 878.28 642.43 879.29 C 639.97 880.41 637.67 881.81 635.44 883.32 C 634.47 883.76 633.51 884.22 632.56 884.69 C 631.16 885.52 629.82 886.44 628.43 887.27 C 626.45 888.35 624.58 889.61 622.61 890.72 C 620.43 891.69 618.43 893.00 616.44 894.32 C 615.47 894.76 614.51 895.22 613.56 895.68 C 611.32 897.18 609.02 898.58 606.57 899.71 C 605.17 900.53 603.82 901.44 602.42 902.26 C 600.71 903.19 599.09 904.28 597.44 905.31 C 596.48 905.76 595.52 906.22 594.57 906.69 C 593.68 907.17 592.79 907.67 591.92 908.19 C 592.12 886.94 591.93 865.69 592.00 844.45 C 591.66 842.78 593.53 842.32 594.61 841.69 C 596.59 840.63 598.45 839.36 600.38 838.21 C 600.90 837.99 601.93 837.57 602.45 837.35 C 603.82 836.47 605.16 835.53 606.56 834.70 C 609.01 833.57 611.31 832.16 613.59 830.74 C 615.29 829.79 616.91 828.69 618.56 827.66 C 619.07 827.44 620.10 827.01 620.62 826.79 C 623.16 825.18 625.68 823.54 628.43 822.29 C 629.82 821.45 631.17 820.54 632.58 819.73 C 634.28 818.79 635.90 817.71 637.58 816.71 C 640.02 815.58 642.32 814.17 644.56 812.68 C 645.51 812.22 646.47 811.76 647.44 811.31 C 649.09 810.28 650.71 809.19 652.42 808.26 C 653.82 807.44 655.17 806.53 656.57 805.71 C 659.03 804.58 661.33 803.17 663.56 801.65 C 664.08 801.44 665.11 801.00 665.62 800.79 C 667.29 799.79 668.90 798.70 670.57 797.71 C 673.31 796.45 675.82 794.78 678.42 793.27 C 679.82 792.44 681.16 791.52 682.55 790.68 C 683.51 790.22 684.48 789.77 685.45 789.32 C 686.82 788.46 688.16 787.53 689.54 786.68 C 690.50 786.22 691.47 785.76 692.44 785.32 C 693.82 784.46 695.16 783.54 696.58 782.73 C 698.56 781.64 700.44 780.37 702.38 779.21 C 702.90 779.00 703.93 778.56 704.44 778.35 C 706.07 777.29 707.68 776.20 709.38 775.27 C 711.57 774.31 713.57 772.99 715.56 771.66 C 717.02 770.96 718.50 770.28 720.00 769.66 C 720.07 685.33 719.86 601.00 720.10 516.68 C 727.52 512.66 734.80 508.39 742.13 504.20 Z" />
<path fill="#322d5f" opacity="1.00" d=" M 648.97 558.01 C 661.71 550.85 674.14 543.13 687.06 536.30 C 686.88 572.49 687.11 608.69 686.95 644.88 C 686.96 646.65 684.73 646.91 683.58 647.74 C 682.17 648.53 680.82 649.44 679.42 650.26 C 677.45 651.36 675.57 652.62 673.61 653.72 C 671.15 654.83 668.94 656.37 666.62 657.72 C 664.44 658.71 662.44 660.01 660.41 661.25 C 658.70 662.20 657.08 663.29 655.44 664.34 C 654.92 664.56 653.90 664.99 653.38 665.21 C 651.08 666.63 648.85 668.17 646.37 669.28 C 644.68 670.21 643.08 671.29 641.45 672.32 C 640.48 672.76 639.51 673.22 638.56 673.68 C 636.90 674.71 635.28 675.79 633.58 676.74 C 632.17 677.54 630.82 678.46 629.42 679.29 C 626.00 680.84 623.00 683.15 619.58 684.71 C 617.90 685.71 616.28 686.79 614.59 687.74 C 612.30 689.16 610.01 690.57 607.58 691.71 C 605.31 693.17 603.02 694.58 600.57 695.70 C 599.16 696.53 597.82 697.47 596.45 698.35 C 594.96 699.02 593.48 699.70 591.99 700.34 C 591.92 664.01 592.20 627.68 591.84 591.35 C 593.72 590.03 595.63 588.74 597.62 587.60 C 614.85 577.93 631.81 567.81 648.97 558.01 Z" />
<path fill="#322d5f" opacity="1.00" d=" M 682.44 687.31 C 683.94 686.39 685.39 685.40 686.92 684.54 C 687.10 705.69 686.96 726.84 687.00 747.99 C 687.38 751.05 683.52 751.43 681.56 752.67 C 680.16 753.53 678.82 754.47 677.45 755.36 C 676.93 755.57 675.90 755.99 675.38 756.21 C 673.70 757.19 672.09 758.28 670.45 759.32 C 669.48 759.77 668.51 760.22 667.56 760.68 C 666.16 761.52 664.82 762.44 663.42 763.27 C 660.82 764.78 658.31 766.45 655.57 767.71 C 653.56 768.98 651.56 770.29 649.38 771.28 C 647.41 772.37 645.54 773.63 643.58 774.74 C 641.30 776.16 639.01 777.58 636.57 778.70 C 635.16 779.53 633.82 780.47 632.45 781.35 C 631.93 781.57 630.90 781.99 630.38 782.21 C 628.44 783.36 626.56 784.63 624.62 785.79 C 624.10 786.01 623.07 786.44 622.56 786.66 C 621.17 787.51 619.82 788.44 618.42 789.27 C 616.70 790.19 615.08 791.29 613.44 792.34 C 612.93 792.56 611.90 792.99 611.38 793.21 C 609.08 794.63 606.85 796.16 604.38 797.28 C 602.41 798.38 600.54 799.64 598.57 800.72 C 597.15 801.55 595.81 802.49 594.43 803.37 C 593.82 803.60 592.60 804.05 591.99 804.28 C 592.01 782.95 592.00 761.61 592.00 740.28 L 592.00 739.46 C 593.83 738.43 595.58 737.28 597.43 736.29 C 598.82 735.44 600.17 734.51 601.56 733.65 C 602.07 733.44 603.11 733.01 603.62 732.80 C 605.29 731.79 606.91 730.69 608.55 729.65 C 609.07 729.43 610.10 729.01 610.62 728.79 C 612.28 727.79 613.90 726.70 615.57 725.71 C 618.31 724.45 620.82 722.78 623.42 721.27 C 624.82 720.44 626.16 719.52 627.56 718.69 C 628.51 718.22 629.47 717.76 630.44 717.32 C 632.43 716.00 634.43 714.69 636.62 713.72 C 638.58 712.62 640.45 711.36 642.42 710.27 C 644.09 709.28 645.71 708.20 647.38 707.21 C 647.90 707.00 648.93 706.57 649.45 706.35 C 651.08 705.29 652.70 704.20 654.37 703.20 C 654.89 702.99 655.93 702.57 656.45 702.36 C 657.82 701.47 659.15 700.53 660.54 699.67 C 661.50 699.22 662.47 698.76 663.44 698.32 C 665.08 697.28 666.70 696.19 668.42 695.27 C 669.82 694.44 671.16 693.53 672.55 692.69 C 673.51 692.22 674.48 691.77 675.45 691.32 C 676.83 690.46 678.16 689.53 679.55 688.68 C 680.51 688.21 681.47 687.76 682.44 687.31 Z" />
</g>
</svg>
